<svg xmlns="http://www.w3.org/2000/svg" xmlns:xlink="http://www.w3.org/1999/xlink" viewBox="0 0 1028.67 833.36">
  <defs>
    <clipPath id="clip-path">
      <rect x="333.36" y="540.35" width="23.64" height="58.96" fill="none"/>
    </clipPath>
    <clipPath id="clip-path-3">
      <rect x="134.91" y="299.89" width="48.48" height="48.54" fill="none"/>
    </clipPath>
    <clipPath id="clip-path-5">
      <rect x="179.63" y="303.84" width="21.03" height="66.46" fill="none"/>
    </clipPath>
  </defs>
  <g style="isolation: isolate">
    <g id="Layer_2" data-name="Layer 2">
      <g id="Layer_1-2" data-name="Layer 1">
        <path d="M1028.67,567.62c0,38.94-70.32,70.5-157.06,70.5s-157.06-31.56-157.06-70.5,70.32-70.5,157.06-70.5,157.06,31.57,157.06,70.5" fill="#f2fcfe"/>
        <path d="M750.89,552.92c0,38.94-70.32,70.5-157.07,70.5s-157.06-31.56-157.06-70.5,70.32-70.5,157.06-70.5S750.89,514,750.89,552.92" fill="#f2fcfe"/>
        <path d="M767,722.61c0,38.94-70.32,70.5-157.06,70.5s-157.07-31.56-157.07-70.5,70.32-70.5,157.07-70.5S767,683.67,767,722.61" fill="#f2fcfe"/>
        <path d="M506.66,691.83c0,38.94-70.32,70.5-157.06,70.5s-157.06-31.56-157.06-70.5,70.32-70.5,157.06-70.5,157.06,31.56,157.06,70.5" fill="#f2fcfe"/>
        <polygon points="284.24 633.15 284.26 633.14 291.36 629 291.37 629.01 284.24 633.15" fill="#bbdceb"/>
        <path d="M341.8,661.74,291.36,629h0l-1.53-1-.3-.11a28.62,28.62,0,0,0-3.3-.95,17.13,17.13,0,0,0-2.81-.39h-.34a4.82,4.82,0,0,0-2.37.5l6.41-3.73a21.21,21.21,0,0,0,5.87.79c17.16,0,29.66,19.83,44.8,24.36a29.21,29.21,0,0,0,8.35,1.38c8,0,12.14-4.75,13.7-11.48h1a81.58,81.58,0,0,0,13.1-1.2c8.76-1.45,12-10.44,13.09-19.31l10.67,6.93L341.8,661.74" fill="#bbdceb"/>
        <path d="M346.14,649.86a29.21,29.21,0,0,1-8.35-1.38c-15.14-4.52-27.64-24.36-44.8-24.36a21.21,21.21,0,0,1-5.87-.79c-7.94-2.27-11.5-9-10.75-13.13a214.79,214.79,0,0,1,49.16-5.59c3.86,0,7.73.1,11.58.3-.7,5.14-3.3,14.25-1.91,18.5,3.53,10.81,12.86,14.77,24.64,15-1.56,6.73-5.69,11.48-13.7,11.48" fill="#bbdceb"/>
        <path d="M360.81,638.39h-1c-11.78-.2-21.11-4.16-24.64-15-1.39-4.25,1.21-13.36,1.91-18.5a204.81,204.81,0,0,1,50.24,8.74c-.07,1.38-.18,2.81-.35,4.23-1.05,8.87-4.33,17.86-13.09,19.31a81.58,81.58,0,0,1-13.1,1.2" fill="#bbdceb"/>
        <path d="M915.88,503l-7.14-4.72c.76-.39,1.52-.81,2.31-1.25l7,4.54L915.88,503m-44,29.09,0-10.56,1.11,0c12.92,0,23.53-7.81,26.11-19.37,1-.3,2.12-.65,3.22-1.05l8.18,5.41-38.65,25.55m-9.71,6.41-52-33.73-.29-.11a27.31,27.31,0,0,0-3.31-.94,15.87,15.87,0,0,0-2.8-.4h-.33a4.86,4.86,0,0,0-2.38.5l16.24-9.44a41.23,41.23,0,0,0,7,3.86c14.07,6.34,35.81,19.41,41.67,22.26l0,15.52-3.76,2.48" fill="#bbdceb"/>
        <path d="M873,521.54l-1.11,0,.08-25.6c3,3.82,8.92,7.68,17.56,7.68a34.79,34.79,0,0,0,9.58-1.43c-2.58,11.56-13.19,19.37-26.11,19.37" fill="#bbdceb"/>
        <path d="M866,520.49c-5.86-2.85-27.6-15.92-41.67-22.26a41.23,41.23,0,0,1-7-3.86c-5.76-4.1-6.12-8-5.65-12.45a15.39,15.39,0,0,1,.38-2c3-.63,6.12-1.2,9.23-1.69l11.32,6.57a3,3,0,0,0,1.52.37,3.07,3.07,0,0,0,1.53-.37l16-9.24c1.4,0,2.81,0,4.21,0q6.9,0,13.81.43l-1.76,1h0c-1.13.65-1.83,2-1.84,4L866,520.49" fill="#bbdceb"/>
        <path d="M834.12,485.13a3,3,0,0,1-1.52-.37l-11.32-6.57,1.14-.18,10.18,5.91a3.39,3.39,0,0,0,3,0l14.49-8.36,1.51,0-16,9.24a3,3,0,0,1-1.52.37" fill="#bbdceb"/>
        <path d="M834.12,484.28a3.11,3.11,0,0,1-1.52-.36L822.42,478a217.61,217.61,0,0,1,27.71-2.45l-14.49,8.36a3.11,3.11,0,0,1-1.52.36" fill="#bbdceb"/>
        <path d="M889.54,503.6c-8.64,0-14.51-3.86-17.56-7.68h0c3,3.83,8.92,7.68,17.56,7.68a37,37,0,0,0,12.78-2.48h0c-1.1.4-2.18.75-3.22,1.05a34.79,34.79,0,0,1-9.58,1.43" fill="#bbdceb"/>
        <polygon points="487.39 197.01 680.68 309.34 193.77 590.46 0.48 478.13 487.39 197.01" fill="#efefef"/>
        <polygon points="680.68 309.34 680.78 347.03 193.87 628.15 193.76 590.46 680.68 309.34" fill="#dbdbdb"/>
        <polygon points="193.76 590.46 193.87 628.15 0.59 515.82 0.48 478.13 193.76 590.46" fill="#c6c6c6"/>
        <polygon points="367.05 310.33 372.74 307.02 407.71 322.97 402.02 326.28 367.05 310.33" fill="#7a7a7a"/>
        <polygon points="409.42 330.55 415.11 327.24 450.06 351.67 444.37 354.98 409.42 330.55" fill="#7a7a7a"/>
        <polygon points="444.38 354.98 450.07 351.67 450.05 356.64 444.36 359.95 444.38 354.98" fill="#7a7a7a"/>
        <polygon points="409.96 126.87 409.42 330.55 444.37 354.98 444.36 359.95 367.03 315.3 367.05 310.33 402.02 326.28 402.56 122.6 409.96 126.87" fill="#4b4b4b"/>
        <polygon points="409.96 126.87 415.65 123.57 415.11 327.24 409.42 330.55 409.96 126.87" fill="#7a7a7a"/>
        <polygon points="144.5 442.79 150.19 439.48 185.17 455.43 179.48 458.74 144.5 442.79" fill="#7a7a7a"/>
        <polygon points="186.88 463.01 192.57 459.7 227.53 484.13 221.83 487.44 186.88 463.01" fill="#7a7a7a"/>
        <polygon points="221.83 487.44 227.52 484.13 227.51 489.1 221.82 492.41 221.83 487.44" fill="#7a7a7a"/>
        <polygon points="187.42 259.33 186.88 463.01 221.83 487.44 221.82 492.41 144.49 447.76 144.5 442.79 179.48 458.74 180.02 255.06 187.42 259.33" fill="#4b4b4b"/>
        <polygon points="187.42 259.33 193.11 256.03 192.57 459.7 186.88 463.01 187.42 259.33" fill="#7a7a7a"/>
        <polygon points="326.44 675.41 326.9 639.96 308.98 633.54 316.46 671.01 326.44 675.41" fill="#cb8962"/>
        <path d="M326.48,671.54s.45,8.77.42,10.91c0,2.56-2.75,5.7-9.55,3.15-3.21-1.21-5.29-7.21-11.05-10-7.07-3.43-7.63-6.08-7.21-8.23.49-2.49,5.45-3,9-1.74,5.26,1.93,6.62,3.75,8.39,3.76,1.59,0,10,2.16,10,2.16" fill="#cb8962"/>
        <path d="M299.09,667.36c.21-1.08,1.18-2.67,5.59-2.67,2.37,0,6,2,7.58,2.8-2.45-.33-5.63.47-5.69,2.51.05,0,3.24,3,5,4.61,1.32,1.14,5.19,4.15,7.82,5,3.8,1.26,5.86.2,7.39-1.21,0,1.16.11,3.47.1,4,0,2.55-2.75,5.7-9.55,3.14-3.21-1.21-6.22-7.45-11.05-10-6.95-3.67-7.63-6.08-7.21-8.23" fill="#004169"/>
        <path d="M294.27,681.76s1.11,9.35,1,11c-.16,2.54-2.71,4.84-7.81,4.12-3.39-.47-9.31-5-11-5.89s-11.62-6-11.9-8.5,3.75-4.94,7.43-4.38c3.87.59,12,3.26,13.39,2.51s8.85,1.17,8.85,1.17" fill="#cb8962"/>
        <path d="M272,678.08c.4.06,5.24,1.19,5.71,1.28-3.63.32-4,3-3.63,3.52,2.46,3.34,9.6,6.17,14.77,7.11,4.36.79,6-1.71,6.21-1.72.07,1.3.22,4,.2,4.45-.16,2.55-2.71,4.85-7.81,4.13-3.39-.47-9.31-5-11-5.89s-11.62-6-11.9-8.5,3.75-4.94,7.43-4.38" fill="#004169"/>
        <path d="M295.58,616.7c.52,15.19,2.38,7.36,1.8,22.55-.21,5.52-2.22,26.72-3.28,45.51-.42,7.41-9.71,3.64-10-3.3-.41-11.27-2.82-30.4-4.51-44.26-.64-5.24-3.15-17-1.26-22.48,3.12-9,16.86-8.2,17.22,2" fill="#cb8962"/>
        <path d="M704.13,454.92l-47-31.05c-1.73-1-3.3-1.09-4.43-.43l-2.54,1.48h0c-1.12.65-1.82,2-1.83,4l-.17,59a3.74,3.74,0,0,0,1.71,3,1.1,1.1,0,0,0,1.32,0l-.12.1,2.54-1.48a1.19,1.19,0,0,0,.5-1.09l.16-59.06,0-.26.26.12,46.87,31a5.79,5.79,0,0,1,2,2.1,5.68,5.68,0,0,1,.81,2.78l-.15,55.14a3.75,3.75,0,0,0,1.7,3,1.1,1.1,0,0,0,1.32,0l-.11.1,2.53-1.48a1.18,1.18,0,0,0,.5-1.09l.16-55.14a13.74,13.74,0,0,0-6.09-10.69" fill="#888"/>
        <path d="M766.88,421.17l-46.88-31c-1.73-1-3.3-1.09-4.43-.43L713,391.23h0c-1.12.64-1.82,2-1.83,4l-.16,59a3.74,3.74,0,0,0,1.69,2.94,1.12,1.12,0,0,0,1.33,0l-.11.1,2.53-1.48a1.16,1.16,0,0,0,.5-1.08l.17-59.06,0-.28.18.08,46.95,31a5.9,5.9,0,0,1,2,2.11,5.74,5.74,0,0,1,.82,2.77L767,486.57a3.75,3.75,0,0,0,1.7,2.94,1.12,1.12,0,0,0,1.33,0l-.12.1,2.54-1.48a1.18,1.18,0,0,0,.49-1.09l.16-55.14a13.72,13.72,0,0,0-6.19-10.75" fill="#888"/>
        <polygon points="649.76 424.19 709.26 389.61 709.24 389.63 649.74 424.2 649.76 424.19" fill="#1e4471"/>
        <path d="M714.83,384.48l-.29-.11c-.07,0-4.27-3.2-8.82-.84l-59.51,34.58a5.38,5.38,0,0,1,2.72-.5,16.15,16.15,0,0,1,2.8.4,29,29,0,0,1,3.3.94l.3.11,52,33.74,55.88-36.94-48.35-31.38" fill="#1e4471"/>
        <path d="M727,404.2c9.74,5.66,9.7,14.84-.11,20.5s-25.65,5.66-35.39,0-9.69-14.83.12-20.49,25.64-5.66,35.38,0m-26.65,19.13,24.27-14-6.45-3.75-24.28,14,6.46,3.75" fill="#e3241b"/>
        <polygon points="693.9 419.58 700.36 423.33 724.63 409.32 718.18 405.57 693.9 419.58" fill="#fff"/>
        <path d="M789.78,333.91a5.29,5.29,0,0,0-1.94-2.2,2,2,0,0,0-1.56-.27,5.42,5.42,0,0,0-.75.36L726,366.38a5.28,5.28,0,0,1,.75-.36,1.93,1.93,0,0,1,1.56.27,5.18,5.18,0,0,1,1.95,2.2c.72,1.46.7,2.9,0,3.53l-.84.49a6.52,6.52,0,0,0-1.24,1,11.61,11.61,0,0,0-2.68,6.06l-8.21,68.51a17.52,17.52,0,0,1-1.13,4.85,8.77,8.77,0,0,1-3,4l-.39.25,59.5-34.58a3.73,3.73,0,0,0,.39-.25,8.84,8.84,0,0,0,3-4,17.54,17.54,0,0,0,1.14-4.85L785,345a11.68,11.68,0,0,1,2.69-6,6,6,0,0,1,.85-.76l1-.6c.89-.51,1-2.1.18-3.71" fill="#1e4471"/>
        <path d="M730.28,368.49c.85,1.72.68,3.43-.39,3.8l-.41.22a6.22,6.22,0,0,0-1.25,1,11.61,11.61,0,0,0-2.68,6.06l-8.21,68.51a17.52,17.52,0,0,1-1.13,4.85,8.77,8.77,0,0,1-3,4,6.22,6.22,0,0,1-3.36,1.09,11.87,11.87,0,0,1-6.24-1.89l-48-31.14c-.46-.16-.89-.28-1.39-.42A15.46,15.46,0,0,0,651,424a2.5,2.5,0,0,0-1.3.18A1.78,1.78,0,0,1,648,424a5.12,5.12,0,0,1-1.76-1.86c-1-1.67-1-3.49,0-4.06a5.38,5.38,0,0,1,2.72-.5,16.15,16.15,0,0,1,2.8.4,25.86,25.86,0,0,1,3.3.95l.3.1s50.54,32.41,51.39,32.54a4.07,4.07,0,0,0,2.21-.28,5.68,5.68,0,0,0,2.76-3.47,13,13,0,0,0,.69-3.21l8.24-68.82a15.15,15.15,0,0,1,3.52-7.9,7.24,7.24,0,0,1,2.63-1.9,1.93,1.93,0,0,1,1.56.27,5.25,5.25,0,0,1,1.95,2.2" fill="#1c2936"/>
        <path d="M645.06,489.34l-46.88-31c-1.73-1-3.3-1.09-4.44-.44l-2.53,1.48h0c-1.12.65-1.82,2-1.83,4l-.17,59.06a3.73,3.73,0,0,0,1.7,2.93,1.12,1.12,0,0,0,1.33,0l-.11.09,2.53-1.47a1.2,1.2,0,0,0,.5-1.09l.16-59.05,0-.28.18.08,47,31a6.28,6.28,0,0,1,2.82,4.88l-.16,55.15a3.75,3.75,0,0,0,1.69,2.93,1.14,1.14,0,0,0,1.34,0l-.12.09,2.54-1.47a1.19,1.19,0,0,0,.49-1.09l.16-55.15a13.78,13.78,0,0,0-6.19-10.75" fill="#888"/>
        <path d="M546.94,541.34a92.94,92.94,0,0,1-15.35,2.43c-4.71.21-9.7,5-4.9,7.35,6.18,3,26.7,6.46,26.7,6.46s6.4,1.44,9.24-3a4.22,4.22,0,0,0,.58-2.76l-.85-7.73-15.42-2.8" fill="#4d555e"/>
        <path d="M580.47,527.17a129.3,129.3,0,0,1-14.51,1.7c-4.59.2-8.05,5.64-3.72,7.17l23.67,6.4s7.53,1.77,10.39-2.72a3.08,3.08,0,0,0,.35-2.32l-1.84-8.16-14.34-2.07" fill="#4d555e"/>
        <path d="M556.84,494.89C549.27,478.62,543,470.82,543,470.82s-11.38,4-16.09,6.9l19,64.35c.21,2.34,1.42,4.57,5.93,5.59,7.24,1.63,10.67-2.29,10.67-2.29s-1.06-40.54-5.68-50.48" fill="#071e2a"/>
        <path d="M556.34,470.26l25.27,59.26c.29,3.1,3.66,5,6.76,5.28,6.71.63,8.22-3.12,8.22-3.12l-13.65-55.54c-.69.19-20.86-5.49-26.6-5.88" fill="#071e2a"/>
        <path d="M582.31,523.09l-47-31c-1.73-1-3.3-1.09-4.43-.43l-2.54,1.47h0c-1.12.65-1.82,2-1.83,4l-.17,59.05a3.77,3.77,0,0,0,1.71,3,1.08,1.08,0,0,0,1.32,0l-.12.1,2.54-1.47a1.24,1.24,0,0,0,.5-1.1l.16-59.05,0-.27.26.12,46.87,31a5.71,5.71,0,0,1,2,2.11,5.54,5.54,0,0,1,.82,2.78l-.15,55.14a3.78,3.78,0,0,0,1.7,3,1.13,1.13,0,0,0,1.32,0l-.11.09,2.53-1.47a1.19,1.19,0,0,0,.5-1.1l.16-55.14a13.74,13.74,0,0,0-6.09-10.69" fill="#888"/>
        <polygon points="527.94 492.37 587.44 457.79 587.42 457.8 527.92 492.38 527.94 492.37" fill="#1e4471"/>
        <path d="M593,452.66l-.29-.11c-.07,0-4.27-3.2-8.82-.84l-59.51,34.58a5.16,5.16,0,0,1,2.71-.5,16.12,16.12,0,0,1,2.81.39,27.91,27.91,0,0,1,3.3.95l.3.11,52,33.73L641.36,484,593,452.66" fill="#1e4471"/>
        <path d="M576.83,505.64c4.34,3.22,7.35,3.44,12.61,1.86,10.31-3.09,19.46-9.77,29-14.57,3.42-1.71,6.76-3.6,10.25-5.17l-21-27.11c-3.93-2.72-29.66-11.22-35.43-11.33-10.66-.21-13.81,1.88-15.16,4.82-1.73,3.77-.77,9.1-.77,9.1s-12.06-5.45-14-5.45c-13.24,0-15.41,8.83-15.41,8.83-2.05,4.21,1,17.62,1,17.62,5.4-2.5,15.6-1.15,19,1.36,9,6.65,25.92,17.07,29.9,20" fill="#071e2a"/>
        <path d="M641.36,391c-1.7-15.24-11.14-20.51-15.35-21.78-6.23-1.88-11.65-.65-23,2.16-4.65,1.16-10.89,6-18.08,11.23-16.05,11.66-10,32.07-9.29,44.65,1.41,25-3.12,52.19-3.12,52.19s1.09,9.8,13.12,10.81c14,1.17,43.68-10.08,43.68-10.08s.53-21.41,3.14-29.15c5.37-15.89,9.94-50.62,8.89-60" fill="#4d4c4c"/>
        <path d="M588.46,400.1a123.33,123.33,0,0,0-13.61-2c-2.24,10,.35,21.14.8,29.11a245.44,245.44,0,0,1-1.2,37.13c.4-.66.76-1.35,1.21-2,18.58-25.68,15.11-47.58,12.8-62.26" fill="#1c2936"/>
        <path d="M597.08,356.12l.92,14.12c.12,5.23,17.89,2.87,17.77-2.36l-1.17-12.17-17.52.41" fill="#efa77d"/>
        <path d="M615.54,364.65c-2,4-11.74,5.86-17.66,3.8l-2,6.36c3.72,5,16.37.91,20.5-2.32,3.19-2.49,2.67-4.22,2.67-4.22l-3.5-3.62" fill="#ececec"/>
        <path d="M592.91,354.1c1.63,8.62,4.21,10.59,11.85,10.88,0,0,14.89-1,15.19-8.92l2.15-14.59-31.25-5.32,2.06,18" fill="#efa77d"/>
        <path d="M600.35,325.76c-6.39,2.51-16.54,8.51-7.25,15.52,0,0,2,1.9,1.75,8.07s6.1,11.71,10.79,15.7c3.41,2.9,9.9-.4,9.9-.4s11.28-11.22,7.3-29.48c-2.43-11.12-18-11.18-22.49-9.41" fill="#af7832"/>
        <path d="M591.22,351.44c-.85.75-.12,6.3.65,7.85s5.59,4.18,5.59,4.18,1.62-14.87-2.23-14.13a6.93,6.93,0,0,0-4,2.1" fill="#fff"/>
        <path d="M594.24,349.77l1.37,5.78c2.31,1.4,2-2.77,1.69-6.26-.37-4.73-3.06.48-3.06.48" fill="#efa77d"/>
        <path d="M668,402.09a5.23,5.23,0,0,0-1.94-2.2,1.9,1.9,0,0,0-1.56-.27,3.65,3.65,0,0,0-.75.36L604.2,434.56a4.26,4.26,0,0,1,.75-.36,1.9,1.9,0,0,1,1.56.27,5.25,5.25,0,0,1,2,2.2c.72,1.46.7,2.9,0,3.53l-.84.48a7.45,7.45,0,0,0-1.25,1.05,11.61,11.61,0,0,0-2.67,6.06l-8.21,68.51a17.52,17.52,0,0,1-1.13,4.85,8.84,8.84,0,0,1-3,4l-.39.24,59.5-34.58.39-.24a8.77,8.77,0,0,0,3-4,17.52,17.52,0,0,0,1.13-4.85l8.21-68.51a11.61,11.61,0,0,1,2.68-6.06,6.69,6.69,0,0,1,.84-.76l1-.6c.88-.51,1-2.1.18-3.7" fill="#1e4471"/>
        <path d="M608.46,436.67c.85,1.72.68,3.42-.39,3.8l-.42.21a7.45,7.45,0,0,0-1.25,1.05,11.69,11.69,0,0,0-2.68,6.06l-8.2,68.51a17.52,17.52,0,0,1-1.13,4.85,8.9,8.9,0,0,1-3,4,6.34,6.34,0,0,1-3.37,1.09,12,12,0,0,1-6.23-1.89l-48-31.15c-.47-.15-.89-.28-1.4-.42a14.6,14.6,0,0,0-3.22-.56,2.6,2.6,0,0,0-1.29.17,1.78,1.78,0,0,1-1.77-.18,5,5,0,0,1-1.76-1.85c-1-1.68-1-3.5,0-4.06a5.16,5.16,0,0,1,2.71-.5,15.22,15.22,0,0,1,2.81.39,27.91,27.91,0,0,1,3.3.95l.3.11s50.54,32.41,51.39,32.53a4,4,0,0,0,2.21-.28,5.63,5.63,0,0,0,2.76-3.46,13,13,0,0,0,.69-3.21L598.8,444a15,15,0,0,1,3.52-7.9,7,7,0,0,1,2.63-1.9,1.9,1.9,0,0,1,1.56.27,5.19,5.19,0,0,1,2,2.2" fill="#1c2936"/>
        <path d="M538.23,449.3s-7,.87-8.82,2.46-6.26,7.79-5.75,9.73,3.28,5.13,3.28,5.13a12.76,12.76,0,0,1,4-5.13,31.57,31.57,0,0,1,7.3-3.53V449.3" fill="#efa77d"/>
        <path d="M592.29,399.31s-.15,1.31-.42,3.59-.78,5.47-1.45,9.32c-.38,1.92-.78,4-1.21,6.2s-1,4.51-1.57,6.92-1.27,4.88-2,7.43-1.58,5.16-2.66,7.85c-.54,1.35-1.13,2.73-1.87,4.21-.37.74-.77,1.5-1.29,2.35a19.12,19.12,0,0,1-2.12,2.86l-.4.42-.35.34,0,0-.09.08-.62.52a14.48,14.48,0,0,1-1.62,1.18,22.2,22.2,0,0,1-2.4,1.33,40.63,40.63,0,0,1-4.16,1.72,64.17,64.17,0,0,1-7.43,2.05c-2.34.48-4.55.84-6.59,1.11s-3.92.41-5.59.48-3.13.1-4.34.07c-2.41,0-3.79-.2-3.79-.2a5.8,5.8,0,0,1-.84-11.36h0l3.18-.87,3.63-1c1.39-.42,3-.86,4.66-1.43s3.53-1.15,5.4-1.86,3.82-1.45,5.64-2.29a26.81,26.81,0,0,0,2.47-1.26,8.88,8.88,0,0,0,.81-.53s.18-.16-.12.07l-.07.06h0l.17-.16.09-.09,0,0-.26.25h0l-.08.08c-.18.17-.07,0,0-.23s.29-.62.45-1c.34-.82.7-1.81,1-2.86.66-2.09,1.3-4.37,1.9-6.65s1.1-4.6,1.65-6.84,1-4.44,1.46-6.52.89-4.07,1.29-5.89c.81-3.66,1.48-6.71,2-8.85l.77-3.31,0-.16a8.5,8.5,0,0,1,16.73,2.9" fill="#4d4c4c"/>
        <path d="M460.45,593.46l-47-31c-1.73-1-3.3-1.1-4.44-.44l-2.53,1.48h0c-1.12.65-1.83,2-1.83,4l-.17,59.06a3.75,3.75,0,0,0,1.7,2.94,1.12,1.12,0,0,0,1.33,0l-.12.1,2.54-1.48a1.18,1.18,0,0,0,.49-1.09l.17-59,0-.27.26.12,46.87,31a5.76,5.76,0,0,1,2,2.1,5.7,5.7,0,0,1,.82,2.78l-.15,55.14a3.73,3.73,0,0,0,1.7,3,1.1,1.1,0,0,0,1.32,0l-.12.1,2.54-1.48a1.17,1.17,0,0,0,.5-1.09l.16-55.14a13.74,13.74,0,0,0-6.09-10.69" fill="#888"/>
        <path d="M523.19,559.71l-46.87-31c-1.73-1-3.3-1.09-4.44-.43l-2.53,1.47h0c-1.13.64-1.83,2-1.83,4l-.17,59.05a3.73,3.73,0,0,0,1.7,2.94,1.14,1.14,0,0,0,1.33,0l-.12.09,2.54-1.48a1.17,1.17,0,0,0,.49-1.08l.17-59.06,0-.28.18.08,46.95,31a5.76,5.76,0,0,1,2,2.1,5.69,5.69,0,0,1,.82,2.77l-.15,55.15a3.74,3.74,0,0,0,1.69,2.94,1.12,1.12,0,0,0,1.33,0l-.11.1,2.54-1.48a1.17,1.17,0,0,0,.49-1.08l.16-55.15a13.74,13.74,0,0,0-6.2-10.75" fill="#888"/>
        <polygon points="406.08 562.73 465.58 528.15 465.56 528.17 406.06 562.75 406.08 562.73" fill="#1e4471"/>
        <path d="M471.15,523l-.3-.1c-.06,0-4.26-3.21-8.82-.85l-59.5,34.58a5.23,5.23,0,0,1,2.71-.49,15.22,15.22,0,0,1,2.81.39,26.48,26.48,0,0,1,3.3,1l.3.1,52,33.74L519.5,554.4,471.15,523" fill="#1e4471"/>
        <path d="M483.33,541.3c9.74,5.66,9.7,14.83-.11,20.5s-25.65,5.65-35.39,0S438.14,547,448,541.3s25.64-5.67,35.38,0m-26.66,19.13,24.28-14-6.46-3.75-24.27,14,6.45,3.75" fill="#e3241b"/>
        <polygon points="450.22 556.68 456.68 560.43 480.95 546.41 474.49 542.66 450.22 556.68" fill="#fff"/>
        <path d="M546.1,472.45a5.24,5.24,0,0,0-2-2.2,2,2,0,0,0-1.55-.27,5.42,5.42,0,0,0-.75.36l-59.51,34.58a7,7,0,0,1,.75-.36,2,2,0,0,1,1.56.27,5.38,5.38,0,0,1,2,2.2c.72,1.46.7,2.9,0,3.53l-.84.49a6.57,6.57,0,0,0-1.25,1.05,11.61,11.61,0,0,0-2.68,6.06l-8.2,68.5a17.43,17.43,0,0,1-1.13,4.85,8.86,8.86,0,0,1-3,4c-.12.09-.25.17-.38.25l59.5-34.58.39-.25a8.77,8.77,0,0,0,3-4,17.43,17.43,0,0,0,1.13-4.85l8.21-68.5a11.53,11.53,0,0,1,2.68-6.06,6.69,6.69,0,0,1,.84-.76l1-.6c.88-.51,1-2.1.18-3.71" fill="#1e4471"/>
        <path d="M486.6,507c.85,1.72.68,3.43-.39,3.8l-.42.22a6.57,6.57,0,0,0-1.25,1.05,11.61,11.61,0,0,0-2.68,6.06l-8.2,68.5a17.43,17.43,0,0,1-1.13,4.85,8.86,8.86,0,0,1-3,4,6.19,6.19,0,0,1-3.36,1.09,11.93,11.93,0,0,1-6.23-1.88l-48-31.15-1.4-.42a15.24,15.24,0,0,0-3.22-.57,2.45,2.45,0,0,0-1.29.18,1.78,1.78,0,0,1-1.77-.18,5.08,5.08,0,0,1-1.76-1.85c-1-1.68-1-3.5,0-4.07a5.25,5.25,0,0,1,2.71-.49,15.22,15.22,0,0,1,2.81.39,26.48,26.48,0,0,1,3.3,1l.3.1S462.19,590,463,590.14a4.07,4.07,0,0,0,2.21-.28,5.65,5.65,0,0,0,2.76-3.47,13,13,0,0,0,.69-3.21l8.24-68.82a15.07,15.07,0,0,1,3.52-7.9,7.24,7.24,0,0,1,2.63-1.9,2,2,0,0,1,1.56.27,5.38,5.38,0,0,1,2,2.2" fill="#1c2936"/>
        <path d="M338.62,663.86l-47-31c-1.73-1-3.3-1.09-4.44-.43l-2.53,1.47h0c-1.13.65-1.83,2-1.83,4l-.17,59a3.77,3.77,0,0,0,1.7,3,1.1,1.1,0,0,0,1.33,0l-.12.11,2.53-1.48a1.19,1.19,0,0,0,.5-1.1l.17-59,0-.27.26.12,46.87,31a6.24,6.24,0,0,1,2.81,4.89l-.15,55.14a3.74,3.74,0,0,0,1.7,2.95,1.1,1.1,0,0,0,1.32,0l-.12.1,2.54-1.47a1.22,1.22,0,0,0,.5-1.09l.15-55.15a13.74,13.74,0,0,0-6.09-10.69" fill="#888"/>
        <path d="M401.37,630.12l-46.87-31c-1.73-1-3.3-1.09-4.44-.44l-2.53,1.48h0c-1.13.65-1.83,2-1.83,4l-.17,59.06a3.73,3.73,0,0,0,1.7,2.93,1.12,1.12,0,0,0,1.33,0l-.12.09,2.54-1.47a1.19,1.19,0,0,0,.49-1.09l.17-59.05,0-.28.18.08,46.95,31a5.84,5.84,0,0,1,2,2.1,5.7,5.7,0,0,1,.82,2.78l-.15,55.15a3.74,3.74,0,0,0,1.69,2.94,1.11,1.11,0,0,0,1.33,0l-.11.1,2.53-1.47a1.18,1.18,0,0,0,.5-1.09l.15-55.15a13.7,13.7,0,0,0-6.19-10.74" fill="#888"/>
        <polygon points="284.26 633.14 343.76 598.56 343.74 598.57 284.24 633.15 284.26 633.14" fill="#1e4471"/>
        <path d="M349.33,593.43l-.3-.11c-.06,0-4.26-3.2-8.82-.84l-59.5,34.58a5.12,5.12,0,0,1,2.71-.5,17.13,17.13,0,0,1,2.81.39,28.62,28.62,0,0,1,3.3.95l.3.11,52,33.73,55.87-36.93-48.34-31.38" fill="#1e4471"/>
        <path d="M316.16,587c-3.31-.78-6.44.56-9.65,1.67-18.71,6.45-29.48,18.71-30.07,21.2-1.2,5,4.27,14.22,16.55,14.22,17.16,0,29.66,19.84,44.8,24.36,33.87,10.13,23.08-38.4,11.56-51.15L316.16,587" fill="#9e9ea2"/>
        <path d="M390,536c-.34-2.47,0-12.65-10-16.33,0,0-19.12-6.53-37.41,12.53-2.84,3-3.89,6.73-5.69,15.24-1.36,6.41-4.52,11.61-5.61,15.07-1.34,4.24,7.23,18.19,7.23,18.19s-.55,16.78-1.39,23.81c-.59,5-3.39,14.56-2,18.94,4.85,14.85,20.66,16.77,38.71,13.78s12.82-38.05,12.82-38.05l-3.64-17.26s7.24-43.44,6.9-45.92" fill="#74bf4b"/>
        <path d="M338.55,580.66h0m0,.19h0m0,.11h0m0,.36v0m0,.08h0m0,.09h0m-.13,3.4v0m0,.16v0M338,593.8h0v0c.18-3.15.32-6.28.42-8.69-.1,2.41-.24,5.55-.42,8.71" fill="#f2f2f2"/>
        <path d="M337.63,599.31c.12-1.75.24-3.64.34-5.51h0c-.1,1.87-.22,3.76-.34,5.5h0" fill="#989898"/>
        <g style="mix-blend-mode: multiply">
          <g clip-path="url(#clip-path)">
            <g clip-path="url(#clip-path)">
              <path d="M337.63,599.3c.12-1.74.24-3.63.34-5.5.18-3.16.32-6.3.42-8.71v-.2a.92.92,0,0,0,0-.16c.06-1.4.1-2.53.12-3.24h0a.25.25,0,0,0,0-.08h0v-.1c0-.13,0-.24,0-.33h0a.34.34,0,0,0,0-.1h0v-.19h0a95,95,0,0,1-5.19-9.79c7.63-8,6.87-19.23,12.9-28a5.74,5.74,0,0,0,1-2.52c14.21,7.31,10.34,27.15,4.12,40.44-3.5,7.5-8.14,12.85-13.77,18.52" fill="#74bf4b"/>
            </g>
          </g>
        </g>
        <path d="M356.32,510.75l1.84,14.71c.28,5.3,15,3.11,14.69-2.19L370.09,510l-13.77.72" fill="#cb8962"/>
        <path d="M371.74,517.92c.09,5.41-8.65,6.47-14.28,2.06l-2.85,3c4.71,8.74,14,6.75,18.05,3.29,3.61-3.1,1-7.64,1-7.64l-1.94-.68" fill="#ececec"/>
        <path d="M350.34,508.9c1.91,8.71,5.54,11.46,13.31,11.53,0,0,8.44-4.08,11.06-12.49l1.1-2.86a8.39,8.39,0,0,0-6.66-11.32l-21.42-3,2.61,18.16" fill="#cb8962"/>
        <path d="M357.07,479.91c-5,2.12-12.66,3.82-11.1,14.28.23,1.51,1.83,1.1,4,2.65,0,0,2.24.92,2.19,7.19s9.37,12.12,11.64,13.19,7.71-.35,7.71-.35,10.53-16.9,6.91-27.69c-3.69-10.95-16.84-11.19-21.36-9.27" fill="#071e2a"/>
        <path d="M349.56,505.26c-1.11,1,.93,8.63,1.93,10.64s4.41,3.4,4.41,3.4.4-19.67-1.47-17.25c-2.09,2.7-4.15,2.58-4.87,3.21" fill="#fff"/>
        <path d="M351.87,502.74s2.62-3.87,3.39-.12c.61,2.94.86,7.38-1.52,7a2.08,2.08,0,0,1-1.71-1.93l-.16-5" fill="#cb8962"/>
        <path d="M372.1,484.58s8.37-3.5,11.81,1.86c1.61,2.49,1.67,7.08.75,12.91-.75,4.72-7.64,7.25-9.78,3l0-.06c-1-2.07-10.88-13.62-2.75-17.68" fill="#071e2a"/>
        <polygon points="389.19 530.1 396.07 560.1 381.74 573.77 389.19 530.1" fill="#74bf4b"/>
        <path d="M424.28,542.86a5.19,5.19,0,0,0-1.95-2.2,1.89,1.89,0,0,0-1.56-.27,4.26,4.26,0,0,0-.75.36l-59.5,34.58a3.93,3.93,0,0,1,.75-.36,1.9,1.9,0,0,1,1.56.27,5.25,5.25,0,0,1,1.95,2.2c.72,1.46.7,2.9,0,3.53l-.84.48a7.07,7.07,0,0,0-1.25,1,11.69,11.69,0,0,0-2.68,6.06l-8.2,68.51a17.19,17.19,0,0,1-1.14,4.85,8.83,8.83,0,0,1-3,4l-.38.24,59.5-34.58.39-.24a8.83,8.83,0,0,0,3-4,17.52,17.52,0,0,0,1.13-4.85L419.55,554a11.61,11.61,0,0,1,2.68-6.06,6.05,6.05,0,0,1,.84-.76l1-.6c.88-.51,1-2.1.18-3.7" fill="#1e4471"/>
        <path d="M364.78,577.44c.85,1.72.68,3.42-.39,3.8l-.42.21a7.07,7.07,0,0,0-1.25,1,11.69,11.69,0,0,0-2.68,6.06l-8.2,68.51a17.19,17.19,0,0,1-1.14,4.85,8.83,8.83,0,0,1-3,4,6.28,6.28,0,0,1-3.36,1.09,11.91,11.91,0,0,1-6.23-1.89l-48-31.15-1.4-.42a14.7,14.7,0,0,0-3.22-.56,2.58,2.58,0,0,0-1.29.17,1.78,1.78,0,0,1-1.77-.18,4.93,4.93,0,0,1-1.76-1.85c-1-1.68-1-3.5,0-4.06a5.12,5.12,0,0,1,2.71-.5,16.12,16.12,0,0,1,2.81.39,28.62,28.62,0,0,1,3.3.95l.3.11s50.53,32.41,51.39,32.53a4,4,0,0,0,2.21-.28,5.63,5.63,0,0,0,2.76-3.46,13.48,13.48,0,0,0,.69-3.21l8.24-68.82a15,15,0,0,1,3.52-7.9,7,7,0,0,1,2.63-1.9,1.9,1.9,0,0,1,1.56.27,5.25,5.25,0,0,1,1.95,2.2" fill="#1c2936"/>
        <polygon points="327.64 540.65 327.18 541.04 315.03 522.13 315.49 521.74 327.64 540.65" fill="#041016"/>
        <polygon points="315.48 521.74 315.03 522.13 295.01 533.23 295.47 532.83 315.48 521.74" fill="#040f15"/>
        <polygon points="307.63 551.74 307.17 552.14 295.02 533.23 295.47 532.83 307.63 551.74" fill="#868686"/>
        <polygon points="327.64 540.65 327.18 541.04 307.17 552.14 307.63 551.75 327.64 540.65" fill="gray"/>
        <path d="M292.73,534.48l-.46.4a1.72,1.72,0,0,1,.14-2.23l.46-.39a1.69,1.69,0,0,0-.14,2.22" fill="#041016"/>
        <path d="M315.92,519.44a1.93,1.93,0,0,1,2.43.84l12,18.71a1.64,1.64,0,0,1-.36,2.38L307.18,554a1.92,1.92,0,0,1-2.43-.83l-12-18.72a1.64,1.64,0,0,1,.36-2.38l22.83-12.66m11.72,21.21-12.16-18.91-20,11.09,12.15,18.91,20-11.09" fill="#071e2a"/>
        <polygon points="315.48 521.74 327.64 540.65 307.63 551.75 295.47 532.83 315.48 521.74" fill="#f4f4f4"/>
        <polygon points="303.67 534.74 305.29 537.26 302.63 538.74 301.01 536.22 303.67 534.74" fill="#c9c9c9"/>
        <polygon points="308.35 532.2 309.97 534.72 307.3 536.2 305.68 533.67 308.35 532.2" fill="#c9c9c9"/>
        <polygon points="313.03 529.66 314.64 532.19 311.98 533.66 310.36 531.14 313.03 529.66" fill="#c9c9c9"/>
        <polygon points="306.57 539.01 308.19 541.53 305.52 543.01 303.9 540.49 306.57 539.01" fill="#c9c9c9"/>
        <polygon points="311.25 536.47 312.87 538.99 310.2 540.47 308.58 537.95 311.25 536.47" fill="#c9c9c9"/>
        <polygon points="315.93 533.94 317.55 536.46 314.88 537.94 313.26 535.42 315.93 533.94" fill="#c9c9c9"/>
        <polygon points="309.47 543.29 311.09 545.81 308.42 547.28 306.8 544.76 309.47 543.29" fill="#c9c9c9"/>
        <polygon points="314.15 540.74 315.77 543.26 313.1 544.74 311.48 542.22 314.15 540.74" fill="#c9c9c9"/>
        <polygon points="318.82 538.21 320.44 540.73 317.78 542.21 316.16 539.69 318.82 538.21" fill="#c9c9c9"/>
        <polygon points="315.48 521.74 316.82 523.78 296.79 534.89 295.47 532.83 315.48 521.74" fill="#1e4471"/>
        <polygon points="330.02 541.37 307.18 554.03 306.72 554.43 329.56 541.77 329.78 541.61 330.24 541.22 330.02 541.37" fill="#040f15"/>
        <polygon points="304.75 553.2 304.3 553.59 292.27 534.88 292.73 534.49 304.75 553.2" fill="#041016"/>
        <path d="M307.18,554l-.46.4a1.92,1.92,0,0,1-2.42-.84l.45-.39a1.92,1.92,0,0,0,2.43.83" fill="#041016"/>
        <path d="M300.05,560.1s-7.62-8.34-7.78-10.26c-.34-4.14,3.26-9.85,3.26-9.85l4.89,7.6s2.74-1,1.35-3.15c-2-3.07-1.59-4.25-.66-4.85,0,0,4.29,6.75,5,8.76,1.7,4.55-.41,7.17-.41,7.17l-5.69,4.58" fill="#cb8962"/>
        <path d="M352.5,529.74c-9.4-2.5-11.69,7-13.51,13.67-2.76,10.26-4.4,19.12-8.75,28.85-6.58-5.07-13.74-9-20-14.38-1.3-1.13-2.59-2.54-4.37-2.87a5.07,5.07,0,0,0-5.91,5.42c.26,2.71,3,5.31,4.56,7.35,2.54,3.33,5.16,6.6,7.89,9.78,4.25,5,11.85,14,18.78,15.31C342.72,595,346.87,577,350.11,569c3.11-7.75,5.8-15.69,8.12-23.71,1.75-6.1,2-13.47-5.73-15.51-5.09-1.36,5.1,1.35,0,0" fill="#74bf4b"/>
        <path d="M315.77,537.88a1.49,1.49,0,0,0,1.13,2c2.65.6,8.05,1.2,8.05,1.2a1.66,1.66,0,0,0,.56.93,7.45,7.45,0,0,0,2.47.94s-1.1.7-.38,1.61h1.84c1.55,0,5.46-.22,7.05-1l1.28.06a71.91,71.91,0,0,1,2-7l-1.7-.17c-2.42-1.73-6.49-4.16-8.08-3.91-1.84.29-5.16,5.37-5.56,5.38l-8.69,0" fill="#cb8962"/>
        <path d="M861.08,542.25s.45,8.71.42,10.84c0,2.54-2.73,5.67-9.49,3.13-3.2-1.2-5.26-7.17-11-10-7-3.41-7.59-6-7.16-8.19.48-2.46,5.41-3,8.9-1.72,5.24,1.92,6.6,3.73,8.34,3.74s10,2.15,10,2.15" fill="#efa77d"/>
        <path d="M833.86,538.08c.21-1.06,1.18-2.64,5.55-2.64,2.36,0,6,1.95,7.53,2.78-2.42-.33-5.59.47-5.64,2.49l5,4.58c1.32,1.14,5.15,4.14,7.78,5,3.77,1.25,5.82.2,7.34-1.2,0,1.15.11,3.45.1,4,0,2.54-2.73,5.67-9.49,3.13-3.2-1.2-6.19-7.41-11-10-6.91-3.64-7.59-6-7.16-8.19" fill="#092838"/>
        <path d="M861.5,543.89V512.77l-17.92-6.42L850.71,541s1.21,5.31,5.42,5.31c4.68,0,5.37-2.41,5.37-2.41" fill="#e3241b"/>
        <path d="M829.11,553.79s.87,10.38.77,12c-.15,2.6-2.77,5-8,4.22-3.46-.48-9.53-5.09-11.24-6s-11.9-6.14-12.19-8.71,3.85-5.06,7.62-4.49c4,.61,12.28,3.34,13.72,2.57s9.32.4,9.32.4" fill="#efa77d"/>
        <path d="M806.07,550.82c.4.06,5.35,1.22,5.84,1.32-3.73.32-4.09,3.1-3.73,3.6,2.54,3.42,9.85,6.32,15.14,7.28,4.47.81,6.18-1.75,6.37-1.76.07,1.33.22,4.12.19,4.56-.15,2.61-2.77,5-8,4.23-3.46-.48-9.53-5.09-11.24-6s-11.9-6.14-12.19-8.71,3.85-5.06,7.62-4.49" fill="#092838"/>
        <path d="M830.18,489.51c.52,15.19,3.33,10.27,2.75,25.46-.21,5.52-2.3,21.55-3,40.36-.2,5.47-11.41,1.41-11.45-2.37-.11-8.81-2.52-29.09-4.21-43-.65-5.25-4.43-22.65-2.55-28.09,3.12-9,18.15-2.59,18.51,7.59" fill="#e3241b"/>
        <path d="M859,540.62l-47-31.05c-1.72-1-3.3-1.09-4.43-.43L805,510.61h0c-1.13.65-1.83,2-1.83,4l-.17,59a3.77,3.77,0,0,0,1.7,3,1.1,1.1,0,0,0,1.32,0l-.11.09,2.53-1.47a1.19,1.19,0,0,0,.5-1.09l.17-59.06,0-.27.26.12,46.86,31a5.71,5.71,0,0,1,2,2.1,5.79,5.79,0,0,1,.83,2.78L859,606a3.78,3.78,0,0,0,1.7,2.95,1.1,1.1,0,0,0,1.32,0l-.11.09,2.53-1.47a1.19,1.19,0,0,0,.5-1.1l.17-55.14a13.75,13.75,0,0,0-6.1-10.68" fill="#888"/>
        <path d="M921.74,506.87l-46.88-31c-1.73-1-3.29-1.09-4.43-.43l-2.53,1.47h0c-1.13.65-1.83,2-1.84,4L865.9,540a3.72,3.72,0,0,0,1.71,2.93,1.1,1.1,0,0,0,1.33,0l-.11.1,2.53-1.48a1.24,1.24,0,0,0,.5-1.09l.16-59.05,0-.28.19.08,46.95,31a6,6,0,0,1,2,2.11,5.74,5.74,0,0,1,.82,2.77l-.15,55.15a3.75,3.75,0,0,0,1.69,2.93,1.09,1.09,0,0,0,1.32,0l-.11.09,2.54-1.47a1.2,1.2,0,0,0,.5-1.09l.15-55.15a13.7,13.7,0,0,0-6.19-10.74" fill="#888"/>
        <polygon points="804.63 509.89 864.13 475.31 864.1 475.32 804.6 509.9 804.63 509.89" fill="#1e4471"/>
        <path d="M869.7,470.18l-.29-.11c-.07,0-4.28-3.2-8.82-.84l-59.51,34.58a5.22,5.22,0,0,1,2.71-.5,15.87,15.87,0,0,1,2.8.4,27.31,27.31,0,0,1,3.31.94l.29.11,52,33.73L918,501.56,869.7,470.18" fill="#1e4471"/>
        <path d="M851.11,459.62c-3.31-.78-11.38-.95-13.69,1.54-3.27,3.54-3,10.76-3,10.76s-8.14-.89-14.47.56a10.19,10.19,0,0,0-8.23,9.44c-.62,5.8.18,10.7,12.62,16.31,15.65,7,40.77,22.43,43,22.81,27,4.66,47.92-24.27,17.23-54.26l-33.42-7.16" fill="#e3241b"/>
        <path d="M839.34,400.42c1.15-.66,2.31,0,2.58,1.41l7.46,35.73a3.83,3.83,0,0,1-1.59,3.81l-43.15,24.91c-1.15.66-2.3,0-2.58-1.41l-7.45-35.72a3.81,3.81,0,0,1,1.6-3.82l43.13-24.91m-34.92,62.39,42.37-24.47-7.21-34.45L797.2,428.36l7.22,34.45" fill="#6e6e6e"/>
        <polygon points="797.2 428.36 804.42 462.81 846.79 438.34 839.58 403.89 797.2 428.36" fill="#f4f4f4"/>
        <polygon points="797.2 428.36 798.13 432.84 840.56 408.58 839.58 403.89 797.2 428.36" fill="#004169"/>
        <path d="M795.43,425.1l43.15-24.91a1.64,1.64,0,0,1,1.34-.2l.77.23a1.71,1.71,0,0,0-1.35.2l-43.13,24.91a3.81,3.81,0,0,0-1.6,3.82l7.45,35.72a2,2,0,0,0,1.24,1.61l-.77-.23a2,2,0,0,1-1.23-1.61l-7.46-35.73a3.83,3.83,0,0,1,1.59-3.81" fill="#1c2936"/>
        <path d="M848.39,440.86a3.37,3.37,0,0,1,3.06,0l28.83,16c.83.49.51,1.88-.34,2.37l-44.3,25.57a3.33,3.33,0,0,1-3,0l-28.52-16.57c-.83-.48-1.14-1.89-.29-2.38l44.6-24.95m-23.78,33.45a2,2,0,0,0,1.83,0l35.47-20.49c.52-.29.52-.77,0-1.06L849,445.27a2,2,0,0,0-1.83,0l-35.48,20.49a.56.56,0,0,0,0,1.06l12.89,7.49m23.3-.06a2,2,0,0,0,1.83,0l12.09-7a.56.56,0,0,0,0-1.06l-8-4.66a2,2,0,0,0-1.82,0l-12.09,7c-.5.29-.52.76,0,1.06l8,4.66" fill="#1c2936"/>
        <path d="M847.21,444.43a2,2,0,0,1,1.83,0l12.89,7.49c.5.29.5.76,0,1.06l-35.48,20.48a2,2,0,0,1-1.83,0L811.72,466c-.5-.29-.5-.76,0-1.06l35.48-20.48" fill="#474747"/>
        <polygon points="848.72 445.31 846.78 446.43 845.99 445.98 847.93 444.86 848.72 445.31" fill="#1c2936"/>
        <polygon points="846.14 446.8 844.2 447.92 843.41 447.47 845.35 446.35 846.14 446.8" fill="#1c2936"/>
        <polygon points="843.57 448.28 841.64 449.4 840.84 448.95 842.78 447.83 843.57 448.28" fill="#1c2936"/>
        <polygon points="846.13 449.56 844.34 450.6 842.8 449.72 844.59 448.69 846.13 449.56" fill="#1c2936"/>
        <polygon points="849.76 450.22 847.97 451.25 846.43 450.38 848.22 449.35 849.76 450.22" fill="#1c2936"/>
        <polygon points="835.69 451.93 837.63 450.81 838.43 451.26 836.49 452.38 835.69 451.93" fill="#1c2936"/>
        <polygon points="847.25 451.67 845.46 452.7 843.94 451.82 845.73 450.79 847.25 451.67" fill="#1c2936"/>
        <polygon points="851.46 451.99 849.67 453.02 848.15 452.15 849.94 451.11 851.46 451.99" fill="#1c2936"/>
        <polygon points="857.28 452.38 859.05 451.36 859.13 451.36 860.92 452.39 859.14 453.41 859.06 453.42 857.28 452.38" fill="#1c2936"/>
        <polygon points="835.85 452.74 833.91 453.86 833.11 453.41 835.05 452.29 835.85 452.74" fill="#1c2936"/>
        <polygon points="838.66 453.87 836.88 454.9 835.35 454.03 837.14 453 838.66 453.87" fill="#1c2936"/>
        <polygon points="852.66 454.05 850.88 455.08 849.35 454.2 851.14 453.17 852.66 454.05" fill="#1c2936"/>
        <polygon points="842.25 454.55 840.46 455.58 838.94 454.71 840.73 453.68 842.25 454.55" fill="#1c2936"/>
        <polygon points="852.25 455.28 854.02 454.26 854.11 454.26 855.88 455.3 854.12 456.32 854.03 456.32 852.25 455.28" fill="#1c2936"/>
        <polygon points="836.45 456.15 838.24 455.12 839.76 455.99 837.97 457.02 836.45 456.15" fill="#1c2936"/>
        <polygon points="833.69 456.74 831.91 457.78 830.37 456.9 832.16 455.87 833.69 456.74" fill="#1c2936"/>
        <polygon points="847.66 456.93 845.88 457.96 844.36 457.09 846.14 456.06 847.66 456.93" fill="#1c2936"/>
        <polygon points="849.24 457.02 851.5 455.71 851.58 455.71 853.37 456.75 851.11 458.05 851.03 458.06 849.24 457.02" fill="#1c2936"/>
        <polygon points="825.4 457.87 827.34 456.75 828.13 457.2 826.19 458.32 825.4 457.87" fill="#1c2936"/>
        <polygon points="837.27 457.44 835.48 458.47 833.94 457.59 835.73 456.56 837.27 457.44" fill="#1c2936"/>
        <polygon points="827.89 458.34 829.68 457.31 831.2 458.18 829.41 459.21 827.89 458.34" fill="#1c2936"/>
        <polygon points="831.45 459.04 833.24 458 834.76 458.88 832.97 459.91 831.45 459.04" fill="#1c2936"/>
        <polygon points="825.4 459.77 827.18 458.74 828.72 459.62 826.92 460.65 825.4 459.77" fill="#1c2936"/>
        <polygon points="842.67 459.82 840.88 460.85 839.36 459.98 841.14 458.94 842.67 459.82" fill="#1c2936"/>
        <polygon points="820.25 460.84 822.18 459.72 822.97 460.17 821.03 461.29 820.25 460.84" fill="#1c2936"/>
        <polygon points="832.27 460.32 830.48 461.35 828.94 460.48 830.73 459.45 832.27 460.32" fill="#1c2936"/>
        <polygon points="822.92 461.21 824.71 460.18 826.23 461.05 824.44 462.08 822.92 461.21" fill="#1c2936"/>
        <polygon points="840.17 461.26 838.39 462.29 836.85 461.42 838.64 460.39 840.17 461.26" fill="#1c2936"/>
        <polygon points="820.4 461.66 818.46 462.78 817.67 462.33 819.61 461.21 820.4 461.66" fill="#1c2936"/>
        <polygon points="826.45 461.92 828.24 460.89 829.76 461.76 827.97 462.8 826.45 461.92" fill="#1c2936"/>
        <polygon points="834.02 462.06 832.24 463.09 830.7 462.22 832.49 461.19 834.02 462.06" fill="#1c2936"/>
        <polygon points="820.43 462.65 822.21 461.61 823.74 462.49 821.95 463.52 820.43 462.65" fill="#1c2936"/>
        <polygon points="837.67 462.7 835.88 463.74 834.36 462.86 836.14 461.83 837.67 462.7" fill="#1c2936"/>
        <polygon points="817.84 463.15 815.9 464.27 815.1 463.82 817.03 462.7 817.84 463.15" fill="#1c2936"/>
        <polygon points="827.27 463.21 825.48 464.24 823.94 463.37 825.73 462.33 827.27 463.21" fill="#1c2936"/>
        <polygon points="828.21 463.65 830 462.62 831.53 463.5 829.75 464.53 828.21 463.65" fill="#1c2936"/>
        <polygon points="817.93 464.08 819.72 463.05 821.26 463.92 819.47 464.96 817.93 464.08" fill="#1c2936"/>
        <polygon points="835.17 464.15 833.39 465.18 831.85 464.31 833.64 463.27 835.17 464.15" fill="#1c2936"/>
        <polygon points="821.45 464.81 823.24 463.78 824.76 464.65 822.97 465.68 821.45 464.81" fill="#1c2936"/>
        <polygon points="832.67 465.59 830.88 466.63 829.36 465.75 831.14 464.72 832.67 465.59" fill="#1c2936"/>
        <path d="M833.43,465.91l.1.18Z" fill="#1c2936"/>
        <polygon points="833.71 466 835.96 464.69 836.03 464.69 837.82 465.72 835.56 467.03 835.48 467.03 833.71 466" fill="#1c2936"/>
        <polygon points="822.27 466.09 820.48 467.13 818.94 466.25 820.73 465.22 822.27 466.09" fill="#1c2936"/>
        <polygon points="830.17 467.04 828.39 468.07 826.85 467.19 828.64 466.16 830.17 467.04" fill="#1c2936"/>
        <path d="M830.91,467.36l.11.19Z" fill="#1c2936"/>
        <polygon points="831.19 467.45 832.96 466.43 833.03 466.42 834.81 467.46 833.05 468.48 832.97 468.49 831.19 467.45" fill="#1c2936"/>
        <polygon points="824.05 467.81 822.27 468.85 820.75 467.97 822.53 466.94 824.05 467.81" fill="#1c2936"/>
        <polygon points="816.53 467.58 818.24 466.6 819.77 467.48 819.19 467.82 821.6 469.22 820.47 469.87 816.53 467.58" fill="#1c2936"/>
        <polygon points="829.82 469.55 831.59 468.51 832.29 468.91 830.52 469.94 829.82 469.55" fill="#1c2936"/>
        <polygon points="827.67 468.48 822.82 471.28 821.3 470.4 826.15 467.6 827.67 468.48" fill="#1c2936"/>
        <polygon points="828.01 471.39 827.31 470.99 829.1 469.96 829.8 470.36 828.01 471.39" fill="#1c2936"/>
        <polygon points="851.1 446.69 849.31 447.72 847.79 446.85 849.58 445.82 851.1 446.69" fill="#1c2936"/>
        <polygon points="845.3 448.29 847.08 447.25 848.61 448.13 846.82 449.16 845.3 448.29" fill="#1c2936"/>
        <polygon points="838.26 450.44 840.2 449.32 841 449.77 839.07 450.89 838.26 450.44" fill="#1c2936"/>
        <polygon points="855.85 449.45 852.17 451.58 850.64 450.71 854.33 448.58 855.85 449.45" fill="#1c2936"/>
        <polygon points="840.33 451.16 842.11 450.13 843.64 451 841.85 452.03 840.33 451.16" fill="#1c2936"/>
        <polygon points="858.23 450.84 853.38 453.63 851.86 452.76 856.71 449.96 858.23 450.84" fill="#1c2936"/>
        <polygon points="844.76 453.11 842.97 454.14 841.45 453.27 843.23 452.23 844.76 453.11" fill="#1c2936"/>
        <polygon points="854.77 453.83 856.53 452.81 856.61 452.81 858.4 453.84 856.63 454.87 856.56 454.87 854.77 453.83" fill="#1c2936"/>
        <polygon points="833.28 454.23 831.34 455.35 830.53 454.9 832.47 453.78 833.28 454.23" fill="#1c2936"/>
        <polygon points="846.48 454.87 844.69 455.9 843.16 455.02 844.95 453.99 846.48 454.87" fill="#1c2936"/>
        <polygon points="832.86 455.46 834.65 454.43 836.17 455.31 834.38 456.34 832.86 455.46" fill="#1c2936"/>
        <polygon points="850.17 455.49 848.39 456.52 846.86 455.65 848.65 454.62 850.17 455.49" fill="#1c2936"/>
        <polygon points="840.67 456.46 842.46 455.43 843.98 456.3 842.2 457.33 840.67 456.46" fill="#1c2936"/>
        <polygon points="838.18 457.9 839.97 456.87 841.5 457.74 839.72 458.77 838.18 457.9" fill="#1c2936"/>
        <polygon points="845.17 458.38 843.39 459.41 841.86 458.53 843.64 457.5 845.17 458.38" fill="#1c2936"/>
        <polygon points="822.82 459.36 824.76 458.24 825.55 458.69 823.61 459.81 822.82 459.36" fill="#1c2936"/>
        <polygon points="835.69 459.34 837.47 458.31 839.01 459.18 837.22 460.21 835.69 459.34" fill="#1c2936"/>
        <polygon points="833.19 460.78 834.98 459.75 836.52 460.62 834.73 461.65 833.19 460.78" fill="#1c2936"/>
        <polygon points="836.7 464.26 848.5 457.45 848.58 457.44 850.37 458.48 838.57 465.29 838.49 465.3 836.7 464.26" fill="#1c2936"/>
        <polygon points="836.42 464.17 836.53 464.36 836.53 464.36 836.42 464.17" fill="#1c2936"/>
        <polygon points="812.52 465.3 814.46 464.18 815.26 464.63 813.32 465.75 812.52 465.3" fill="#1c2936"/>
        <polygon points="825.72 465.09 827.5 464.06 829.04 464.94 827.25 465.97 825.72 465.09" fill="#1c2936"/>
        <polygon points="814.17 466.26 817.24 464.49 818.76 465.36 815.69 467.13 814.17 466.26" fill="#1c2936"/>
        <polygon points="827.29 471.8 825.51 472.83 824.8 472.44 826.59 471.41 827.29 471.8" fill="#1c2936"/>
        <polygon points="837.83 452.59 839.62 451.56 841.16 452.44 839.37 453.47 837.83 452.59" fill="#1c2936"/>
        <polygon points="845.66 453.58 847.44 452.55 848.97 453.43 847.18 454.46 845.66 453.58" fill="#1c2936"/>
        <polygon points="827.96 456.38 829.9 455.26 830.7 455.71 828.76 456.83 827.96 456.38" fill="#1c2936"/>
        <polygon points="823.22 466.53 825.01 465.5 826.55 466.38 824.76 467.41 823.22 466.53" fill="#1c2936"/>
        <polygon points="828.55 469.63 826.77 470.66 826.19 470.33 827.97 469.31 828.55 469.63" fill="#1c2936"/>
        <polygon points="853.48 448.07 850.46 449.81 848.94 448.94 851.95 447.2 853.48 448.07" fill="#1c2936"/>
        <path d="M839.9,467.68c-.5.3-.52.77,0,1.06l8,4.67a2,2,0,0,0,1.83,0l12.09-7a.56.56,0,0,0,0-1.06l-8-4.66a2,2,0,0,0-1.82,0l-12.09,7" fill="#474747"/>
        <path d="M848.39,440a3.37,3.37,0,0,1,3.06,0l28.49,16.57c.85.49.85,1.28,0,1.76l-44.3,25.58a3.33,3.33,0,0,1-3,0l-28.52-16.57a.93.93,0,0,1,0-1.76L848.39,440m-23.78,33.45a2,2,0,0,0,1.83,0L861.91,453c.52-.3.52-.77,0-1.07L849,444.43a2,2,0,0,0-1.83,0l-35.48,20.48c-.51.3-.51.77,0,1.06l12.89,7.49m23.3,0a2,2,0,0,0,1.83,0l12.09-7c.5-.3.51-.77,0-1.06l-8-4.66a2,2,0,0,0-1.82,0l-12.09,7c-.5.29-.52.77,0,1.06l8,4.67" fill="#666"/>
        <polygon points="824.8 424.2 827.07 435.04 840.41 427.34 838.14 416.5 824.8 424.2" fill="#bbbcbc"/>
        <polygon points="804.31 436.24 804.67 437.9 820.37 428.91 820.01 427.17 804.31 436.24" fill="#bbbcbc"/>
        <polygon points="805.25 440.38 805.6 442.05 821.31 433.06 820.95 431.32 805.25 440.38" fill="#bbbcbc"/>
        <polygon points="806.13 444.53 806.48 446.19 822.2 437.2 821.84 435.47 806.13 444.53" fill="#bbbcbc"/>
        <polygon points="807.1 448.68 807.45 450.34 823.17 441.35 822.81 439.61 807.1 448.68" fill="#bbbcbc"/>
        <polygon points="808 452.82 808.35 454.49 824.07 445.5 823.71 443.76 808 452.82" fill="#bbbcbc"/>
        <path d="M869.91,451.09c-.25-2.33-8.27-6.33-8.27-6.33h0a2.37,2.37,0,0,0-.33-.22c-.22-.12-.46-.27-.72-.39s-.51-.27-.79-.39c-.56-.24-1.15-.49-1.75-.7-1.2-.44-2.39-.79-3.31-1l-1.1-.28-.43-.1a1,1,0,0,0-.47,1.86h0l.39.11,1,.32c.86.26,2,.65,3.06,1.1l-.64-.22c-.63-.2-1.3-.37-2-.52-1.35-.31-2.68-.53-3.69-.67-.5-.08-.92-.13-1.22-.16l-.47-.06a1,1,0,0,0-.25,1.9h0l.43.06,1.16.2c.85.16,1.93.38,3,.66-.22,0-.44-.08-.66-.1-1.27-.16-2.55-.23-3.49-.25l-1.15,0h-.44a.93.93,0,0,0-.94.92,1,1,0,0,0,.92,1h0l.41,0c.27,0,.64,0,1.08.06.6,0,1.3.1,2,.2l-.39,0-1.67-.09-1.19,0h-.46a1,1,0,0,0,0,1.91h0l.43,0,1.12.06c.94.07,2.19.19,3.4.4.6.09,1.21.22,1.75.35l.69.19c.62.44,2,1.35,3.55,2.26a1,1,0,0,1-.79.15c-1.11-.28-5.08-.88-4.05,1.44,0,0,6.32,1.9,7.73,1.7a11.91,11.91,0,0,0,4.5-1.21c2.33-.84,4-3.42,3.87-4.13" fill="#efa77d"/>
        <path d="M925.84,407.27c-.33-2.48.07-12.66-9.92-16.35,0,0-19.56-5.35-37.9,13.68-2.84,3-5.7,12.55-7.53,21-1.37,6.41-1.25,8.13-2.34,11.58-1.35,4.25,6.17,14.64,6.17,14.64s-6.15,35.72-4.41,40.49c2.52,6.94,16.72,19.11,42.23,4,15.76-9.31,10.44-28.06,10.44-28.06L919,451.06s7.2-41.32,6.86-43.79" fill="#9e9ea2"/>
        <path d="M870.09,492.8a3.08,3.08,0,0,1-.16-.38,3.08,3.08,0,0,0,.16.38" fill="#cb333e"/>
        <path d="M889.54,503.59c-8.64,0-14.51-3.85-17.56-7.68l0-14.49,0-.28.19.08,30.09,19.89a37,37,0,0,1-12.78,2.48" fill="#747474"/>
        <path d="M900.61,480.07a209.91,209.91,0,0,0-25.05-3.72l-.7-.46a5.61,5.61,0,0,0-2.79-.85,3.16,3.16,0,0,0-1.25.23c1.4-11.12,3.5-23.4,3.5-23.4S868,443.11,868,438.39a3.87,3.87,0,0,1,.16-1.16c1.09-3.45,1-5.17,2.34-11.58.59-2.74,1.28-5.59,2-8.29a6.16,6.16,0,0,0,3.87,4.52c7.36,2.92,9.12,10.55,10.33,17.6,1.46,8.34,2.41,16.11,6.14,23.84,2.31,4.81,5.12,9.42,7,14.43.29.77.54,1.55.75,2.32" fill="#747474"/>
        <path d="M902.24,494l-26.68-17.64a209.91,209.91,0,0,1,25.05,3.72,55.22,55.22,0,0,1,1.63,13.8V494" fill="#747474"/>
        <path d="M902.32,501.11l-30.09-19.89-.19-.08,0,.28,0,14.49a12.89,12.89,0,0,1-1.89-3.11,3.08,3.08,0,0,1-.16-.38l0-.06a10.31,10.31,0,0,1-.31-3,131.55,131.55,0,0,1,1.22-14.05,3.16,3.16,0,0,1,1.25-.23,5.61,5.61,0,0,1,2.79.85l.7.46L902.24,494c.07,2.37.17,4.72.32,7l-.24.09" fill="#747474"/>
        <path d="M837.61,463.53c-.34-1.38-3.89-5-4-5.67-.21-1.69-.83-1.58-.83-1.58s-.7-.1-1.17,1.39a4.15,4.15,0,0,0,.57,2.8,13.24,13.24,0,0,0-3.14-1l-.74-.4c-.51-.25-1.05-.51-1.62-.73a31.43,31.43,0,0,0-3.07-1.08c-.43-.13-.79-.23-1-.29l-.4-.1a1,1,0,0,0-.57,2h0l.36.11,1,.32c.78.28,1.82.68,2.82,1.15l.66.34-.18.17c-.24-.1-.48-.23-.75-.33s-.59-.24-.9-.34c-.63-.22-1.3-.42-2-.6-1.33-.36-2.68-.63-3.69-.8l-1.22-.2-.47-.07a1,1,0,0,0-.33,2.06h0l.45.08,1.15.24c1,.21,2.23.53,3.44.92.63.19,1.22.4,1.78.62l.77.33h0l-.38.54-.11-.06c-.22-.09-.46-.2-.7-.32l-.79-.31c-.56-.18-1.15-.37-1.73-.51a30.42,30.42,0,0,0-3.26-.61l-1.09-.12-.42,0a1,1,0,0,0-.22,2.07h0l.36,0,1,.16a27.56,27.56,0,0,1,3,.71c.53.16,1,.35,1.5.53l.65.29.55.29,0,0-.19.43c-.21-.09-.42-.2-.65-.28s-.51-.22-.78-.3-.55-.19-.83-.26a15.18,15.18,0,0,0-1.64-.36c-.54-.09-1-.14-1.47-.17a10.08,10.08,0,0,0-1.06,0h-.42a1,1,0,0,0-1,1,1.07,1.07,0,0,0,1,1h.35c.21,0,.51,0,.87.07a11.64,11.64,0,0,1,1.25.21c.44.11.93.23,1.38.39.24.07.46.17.68.25a6.64,6.64,0,0,1,.65.29c.21.09.39.2.59.3a4.53,4.53,0,0,1,.49.29,6.3,6.3,0,0,1,.72.48l.28.19.07.05,0,0a1.31,1.31,0,0,0,.5.18c4.69,2.54,9.74,2.76,11.61,1.31,1-.79,3.35-4.78,2.14-7.3" fill="#efa77d"/>
        <path d="M888.61,418.41s-.13,1.42-.44,3.86-.82,5.92-1.48,10.09c-.37,2.08-.78,4.33-1.19,6.71s-1,4.88-1.5,7.48-1.13,5.27-1.8,8-1.31,5.52-2.14,8.32c-.42,1.41-.85,2.82-1.32,4.27s-1,2.9-1.7,4.63c-.2.45-.42.92-.69,1.46a13.54,13.54,0,0,1-1.4,2.23l-.32.39a6.08,6.08,0,0,1-.56.59c-.2.2-.41.39-.62.57-1,.74-.28.21-.51.38l0,0,0,0-.18.12c-.25.16-.5.3-.75.44s-.54.28-.75.37l-.43.17a11.45,11.45,0,0,1-2.61.67,19.55,19.55,0,0,1-3.26.15c-.9,0-1.71-.11-2.5-.2a61.15,61.15,0,0,1-8.16-1.6c-2.47-.62-4.71-1.32-6.76-2-4.1-1.39-7.42-2.71-9.72-3.74-1.15-.51-2-.93-2.66-1.24l-1-.47a4.21,4.21,0,0,1,2-8h.12l1,0c.65,0,1.61.07,2.83.14,2.43.13,5.9.43,10,.75l6.5.52c2.26.15,4.66.31,6.79.29.53,0,1,0,1.44-.07s.78-.1.73-.14a1.84,1.84,0,0,0-.66.16l-.18.07a5.11,5.11,0,0,0-.53.26,4.59,4.59,0,0,0-.52.33l0,0,0,0,.06,0,0,0,0,0-.46.35a3.78,3.78,0,0,0-.43.38c-.14.13-.29.3-.39.41l-.16.19c-.43.57-.35.49-.36.47l.14-.42c.27-.82.62-2,.91-3.23s.59-2.5.89-3.79c.54-2.6,1.15-5.25,1.66-7.88s1-5.25,1.55-7.78,1-5,1.45-7.3.93-4.53,1.35-6.56c.85-4.06,1.59-7.44,2.13-9.8s.87-3.69.87-3.69a8,8,0,0,1,15.7,2.62v.06" fill="#9e9ea2"/>
        <path d="M885.3,378.34c1.9,8.71,5.53,11.47,13.28,11.55,0,0,8.47-4.06,11.1-12.47l1.1-2.85a8.4,8.4,0,0,0-6.64-11.34l-21.41-3.05,2.57,18.16" fill="#efa77d"/>
        <path d="M892.09,349.37c-5,2.11-12.67,3.79-11.13,14.25.22,1.51,1.82,1.1,4,2.66,0,0,2.25.92,2.18,7.19s9.34,12.14,11.62,13.22,7.7-.34,7.7-.34,10.56-16.88,7-27.67c-3.67-11-16.82-11.23-21.34-9.31" fill="#071e2a"/>
        <path d="M883.71,374.15c-1.11,1,.93,8.63,1.93,10.64s4.41,3.41,4.41,3.41.4-19.67-1.47-17.26c-2.09,2.71-4.15,2.58-4.87,3.21" fill="#c4d0d7"/>
        <path d="M944.64,419.61a5.21,5.21,0,0,0-1.93-2.2,1.93,1.93,0,0,0-1.57-.27,3.65,3.65,0,0,0-.75.36l-59.5,34.58a4,4,0,0,1,.74-.36,1.91,1.91,0,0,1,1.57.27,5.23,5.23,0,0,1,1.94,2.2c.72,1.46.7,2.9,0,3.53l-.84.49a6.51,6.51,0,0,0-1.25,1,11.61,11.61,0,0,0-2.67,6.06l-7.5,62.47-.51,4.25-.21,1.79a17.17,17.17,0,0,1-1.13,4.85,8.7,8.7,0,0,1-3,4,2.55,2.55,0,0,1-.39.24l59.51-34.58a3.14,3.14,0,0,0,.39-.24,8.82,8.82,0,0,0,3-4,17.19,17.19,0,0,0,1.14-4.85l8.2-68.51a11.77,11.77,0,0,1,2.68-6.06,7.57,7.57,0,0,1,.85-.76l1-.59c.89-.52,1-2.11.18-3.71" fill="#1e4471"/>
        <path d="M885.14,454.19c.86,1.72.68,3.42-.38,3.8a4.23,4.23,0,0,0-.42.22,6.51,6.51,0,0,0-1.25,1,11.61,11.61,0,0,0-2.67,6.06l-8.22,68.51a17.17,17.17,0,0,1-1.13,4.85,8.7,8.7,0,0,1-3,4,6.28,6.28,0,0,1-3.36,1.09,12,12,0,0,1-6.24-1.89l-48-31.15c-.46-.15-.89-.27-1.4-.41a14.54,14.54,0,0,0-3.21-.57,2.65,2.65,0,0,0-1.3.17,1.75,1.75,0,0,1-1.76-.17,5.22,5.22,0,0,1-1.77-1.86c-1-1.68-1-3.5,0-4.06a5.22,5.22,0,0,1,2.71-.5,15.87,15.87,0,0,1,2.8.4,27.31,27.31,0,0,1,3.31.94l.29.11s50.55,32.41,51.39,32.53a4.12,4.12,0,0,0,2.22-.27,5.67,5.67,0,0,0,2.75-3.47,13,13,0,0,0,.7-3.21l8.24-68.82c.72-4.06,2.18-6.49,3.51-7.9a7.18,7.18,0,0,1,2.63-1.9,1.91,1.91,0,0,1,1.57.27,5.23,5.23,0,0,1,1.94,2.2" fill="#1c2936"/>
        <path d="M725.58,615.78l-47-31c-1.73-1-3.3-1.09-4.43-.43l-2.54,1.48h0c-1.12.65-1.82,2-1.83,4l-.17,59.05a3.74,3.74,0,0,0,1.71,2.95,1.1,1.1,0,0,0,1.32,0l-.12.1,2.54-1.48a1.21,1.21,0,0,0,.5-1.09l.16-59.06,0-.26.26.11,46.87,31a5.79,5.79,0,0,1,2,2.1,5.68,5.68,0,0,1,.81,2.78l-.15,55.14a3.75,3.75,0,0,0,1.7,2.95,1.1,1.1,0,0,0,1.32,0l-.11.1L731,682.7a1.18,1.18,0,0,0,.5-1.09l.16-55.14a13.74,13.74,0,0,0-6.09-10.69" fill="#888"/>
        <path d="M788.33,582l-46.88-31c-1.73-1-3.3-1.09-4.44-.43l-2.53,1.47h0c-1.12.64-1.82,2-1.83,4l-.17,59a3.75,3.75,0,0,0,1.7,2.94,1.12,1.12,0,0,0,1.33,0l-.11.1,2.53-1.48a1.18,1.18,0,0,0,.5-1.08l.16-59.06,0-.28.18.08,47,31a6,6,0,0,1,2,2.11,5.74,5.74,0,0,1,.82,2.77l-.16,55.15a3.74,3.74,0,0,0,1.69,2.94,1.12,1.12,0,0,0,1.33,0l-.11.1,2.54-1.48a1.18,1.18,0,0,0,.49-1.09l.16-55.14A13.72,13.72,0,0,0,788.33,582" fill="#888"/>
        <polygon points="671.21 585.05 730.71 550.47 730.69 550.49 671.19 585.07 671.21 585.05" fill="#1e4471"/>
        <path d="M736.28,545.34l-.3-.11c-.06,0-4.26-3.2-8.82-.84L667.66,579a5.38,5.38,0,0,1,2.72-.5,16.15,16.15,0,0,1,2.8.4,29,29,0,0,1,3.3.94l.3.11,52,33.74,55.88-36.94-48.35-31.38" fill="#1e4471"/>
        <path d="M748.46,564.91c9.74,5.66,9.7,14.84-.11,20.5s-25.65,5.65-35.39,0-9.69-14.84.12-20.5,25.64-5.66,35.38,0M721.81,584l24.27-14-6.46-3.75-24.27,14,6.46,3.75" fill="#e3241b"/>
        <polygon points="715.35 580.29 721.81 584.04 746.08 570.03 739.62 566.28 715.35 580.29" fill="#fff"/>
        <path d="M811.23,494.77a5.29,5.29,0,0,0-1.94-2.2,2,2,0,0,0-1.56-.27,5.42,5.42,0,0,0-.75.36l-59.51,34.58a7,7,0,0,1,.75-.36,2,2,0,0,1,1.56.27,5.31,5.31,0,0,1,2,2.2c.72,1.46.7,2.9,0,3.53l-.84.49a6.83,6.83,0,0,0-1.25,1,11.7,11.7,0,0,0-2.67,6.06l-8,66.72-.21,1.79a17.52,17.52,0,0,1-1.13,4.85,8.77,8.77,0,0,1-3,4l-.39.25,59.51-34.58c.12-.08.26-.16.38-.25a8.77,8.77,0,0,0,3-4,17.19,17.19,0,0,0,1.14-4.85l8.2-68.5a11.61,11.61,0,0,1,2.68-6.07,7.37,7.37,0,0,1,.85-.75l1-.6c.89-.51,1-2.1.18-3.71" fill="#1e4471"/>
        <path d="M751.73,529.35c.85,1.72.68,3.43-.39,3.8l-.42.22a6.83,6.83,0,0,0-1.25,1,11.7,11.7,0,0,0-2.67,6.06L738.79,609a17.52,17.52,0,0,1-1.13,4.85,8.77,8.77,0,0,1-3,4,6.33,6.33,0,0,1-3.36,1.09,11.87,11.87,0,0,1-6.24-1.89l-48-31.14c-.47-.15-.89-.28-1.4-.42a14.63,14.63,0,0,0-3.22-.57,2.6,2.6,0,0,0-1.29.17,1.75,1.75,0,0,1-1.77-.17,5,5,0,0,1-1.76-1.86c-1-1.67-1-3.49,0-4.06a5.36,5.36,0,0,1,2.71-.5,16.12,16.12,0,0,1,2.81.4,29,29,0,0,1,3.3.94l.3.11s50.54,32.41,51.39,32.54a4.07,4.07,0,0,0,2.21-.28,5.65,5.65,0,0,0,2.76-3.47,13,13,0,0,0,.69-3.21l8.24-68.82a15.07,15.07,0,0,1,3.52-7.9,7.24,7.24,0,0,1,2.63-1.9,2,2,0,0,1,1.56.27,5.31,5.31,0,0,1,2,2.2" fill="#1c2936"/>
        <path d="M661.48,659.71l-46.88-31c-1.73-1-3.3-1.1-4.44-.44l-2.53,1.48h0c-1.12.65-1.82,2-1.83,4l-.17,59.06a3.73,3.73,0,0,0,1.7,2.93,1.12,1.12,0,0,0,1.33,0l-.11.09,2.53-1.47a1.19,1.19,0,0,0,.49-1.09l.17-59.05,0-.28.18.07,46.95,31a5.76,5.76,0,0,1,2,2.1,5.7,5.7,0,0,1,.82,2.78l-.15,55.14a3.74,3.74,0,0,0,1.69,2.94,1.13,1.13,0,0,0,1.33,0l-.11.09,2.53-1.48a1.17,1.17,0,0,0,.5-1.08l.16-55.15a13.77,13.77,0,0,0-6.19-10.75" fill="#888"/>
        <path d="M563.35,711.71A92.06,92.06,0,0,1,548,714.13c-4.71.21-9.7,5-4.9,7.36,6.17,3,26.7,6.45,26.7,6.45s6.4,1.45,9.23-2.94a4.19,4.19,0,0,0,.59-2.77l-.85-7.72-15.43-2.8" fill="#4d555e"/>
        <path d="M580.27,693.47a128.12,128.12,0,0,1-14.51,1.71c-4.59.2-8,5.63-3.72,7.17l23.67,6.4s7.53,1.77,10.39-2.73a3.08,3.08,0,0,0,.35-2.32l-1.84-8.16-14.34-2.07" fill="#4d555e"/>
        <path d="M573.25,665.26c-7.57-16.28-13.81-24.07-13.81-24.07s-11.37,4-16.08,6.9l19,64.35c.21,2.34,1.42,4.57,5.93,5.58,7.24,1.64,10.66-2.28,10.66-2.28s-1.06-40.54-5.68-50.48" fill="#071e2a"/>
        <path d="M572.75,640.63l7.81,53.29c.3,3.1,3.67,5,6.76,5.28,6.72.63,8.22-3.11,8.22-3.11l3.81-49.58c-.68.19-20.86-5.49-26.6-5.88" fill="#071e2a"/>
        <path d="M598.73,693.46l-47-31c-1.73-1-3.3-1.09-4.44-.43l-2.53,1.47h0c-1.13.65-1.83,2-1.83,4l-.17,59.06a3.75,3.75,0,0,0,1.7,2.94,1.12,1.12,0,0,0,1.33,0l-.12.09,2.53-1.48a1.15,1.15,0,0,0,.5-1.09l.17-59,0-.27.26.12,46.87,31a6.2,6.2,0,0,1,2.81,4.87l-.15,55.14a3.74,3.74,0,0,0,1.7,3,1.12,1.12,0,0,0,1.32,0l-.12.08,2.54-1.46a1.19,1.19,0,0,0,.5-1.1l.15-55.14a13.71,13.71,0,0,0-6.08-10.69" fill="#888"/>
        <polygon points="544.36 662.73 603.86 628.15 603.84 628.17 544.34 662.75 544.36 662.73" fill="#1e4471"/>
        <path d="M609.43,623l-.3-.11c-.06,0-4.26-3.2-8.82-.84l-59.5,34.58a5.16,5.16,0,0,1,2.71-.5,15.22,15.22,0,0,1,2.81.39,28.62,28.62,0,0,1,3.3,1l.3.11,52,33.73,55.88-36.93L609.43,623" fill="#1e4471"/>
        <path d="M593.25,676c4.33,3.23,7.34,3.45,12.61,1.87,10.31-3.09,19.46-9.77,29-14.57,3.42-1.72,6.76-3.6,10.25-5.18l-21-27.1c-3.93-2.72-29.66-11.22-35.43-11.33-10.66-.21-13.81,1.88-15.16,4.82-1.73,3.76-.77,9.1-.77,9.1s-12.06-5.46-14.05-5.46c-13.24,0-15.41,8.84-15.41,8.84-2.05,4.21,1,17.62,1,17.62,5.4-2.5,15.6-1.15,19,1.36,9,6.65,25.92,17.07,29.9,20" fill="#071e2a"/>
        <path d="M657.77,561.31c-1.69-15.23-11.13-20.5-15.34-21.77-6.24-1.89-11.65-.65-23,2.16-4.66,1.16-10.89,6-18.08,11.23-16.05,11.66-10,32.06-9.3,44.64,1.42,25-3.11,52.2-3.11,52.2s1.09,9.8,13.12,10.81c14,1.17,43.67-10.09,43.67-10.09s.53-21.4,3.15-29.14c5.36-15.89,9.94-50.62,8.88-60" fill="#00bceb"/>
        <path d="M592.06,597.57a238.49,238.49,0,0,1-.93,34.49,72.07,72.07,0,0,0,13.93-31.67c1.71-9.71,1.4-28.21-12.9-26a6.49,6.49,0,0,1-1.7,0c-.51,8.3,1.24,16.76,1.6,23.18" fill="#1a79a5"/>
        <path d="M613.4,529l.92,14.12c.12,5.23,17.89,2.86,17.77-2.36l-1.17-12.17L613.4,529" fill="#956344"/>
        <path d="M609.23,527c1.63,8.62,4.21,10.59,11.85,10.88,0,0,14.89-1,15.19-8.91l2.14-14.6-31.24-5.31L609.23,527" fill="#956344"/>
        <path d="M616.67,498.65c-6.39,2.52-16.54,8.51-7.25,15.52,0,0,2,1.91,1.74,8.08s6.11,11.7,10.8,15.69c3.41,2.91,9.9-.39,9.9-.39s11.28-11.23,7.3-29.48c-2.43-11.12-18-11.19-22.49-9.42" fill="#071e2a"/>
        <path d="M608.22,523.35c-.85.75-.66,7.31.12,8.86s5.46,4.31,5.46,4.31,1.75-15-2.11-14.25c-2.59.5-2.91.59-3.47,1.08" fill="#1e4471"/>
        <path d="M610.56,522.67l1.37,5.77c2.31,1.41,2-2.76,1.69-6.25-.37-4.74-3.06.48-3.06.48" fill="#956344"/>
        <path d="M684.38,572.45a5.15,5.15,0,0,0-2-2.19,1.94,1.94,0,0,0-1.56-.28,6,6,0,0,0-.75.37l-59.5,34.58a5.38,5.38,0,0,1,.75-.37,2,2,0,0,1,1.56.28,5.28,5.28,0,0,1,2,2.19c.72,1.46.7,2.9,0,3.54l-.84.48a6.65,6.65,0,0,0-1.25,1.05,11.61,11.61,0,0,0-2.68,6.06l-8.2,68.5a17.58,17.58,0,0,1-1.13,4.86,9,9,0,0,1-3,4l-.38.24,59.5-34.58.39-.24a8.88,8.88,0,0,0,3-4,17.58,17.58,0,0,0,1.13-4.86l8.21-68.5a11.53,11.53,0,0,1,2.68-6.06,6.05,6.05,0,0,1,.84-.76l1-.6c.88-.51,1-2.1.18-3.71" fill="#1e4471"/>
        <path d="M624.88,607c.85,1.73.68,3.43-.39,3.8l-.42.22a6.65,6.65,0,0,0-1.25,1.05,11.61,11.61,0,0,0-2.68,6.06l-8.2,68.5a17.58,17.58,0,0,1-1.13,4.86,9,9,0,0,1-3,4,6.36,6.36,0,0,1-3.36,1.09,12.05,12.05,0,0,1-6.23-1.89l-48-31.15-1.4-.42a15.35,15.35,0,0,0-3.22-.57,2.66,2.66,0,0,0-1.29.18,1.78,1.78,0,0,1-1.77-.18,5,5,0,0,1-1.76-1.85c-1-1.68-1-3.5,0-4.06a5.12,5.12,0,0,1,2.71-.5,15.22,15.22,0,0,1,2.81.39,28.62,28.62,0,0,1,3.3,1l.3.11s50.54,32.41,51.39,32.53a4.07,4.07,0,0,0,2.21-.28,5.66,5.66,0,0,0,2.76-3.46,13.2,13.2,0,0,0,.69-3.21l8.24-68.82a15.11,15.11,0,0,1,3.52-7.91,7.24,7.24,0,0,1,2.63-1.9,2,2,0,0,1,1.56.28,5.28,5.28,0,0,1,2,2.19" fill="#1c2936"/>
        <polygon points="581.23 581.25 580.77 581.64 568.62 562.73 569.08 562.33 581.23 581.25" fill="#041016"/>
        <polygon points="569.08 562.33 568.62 562.73 548.61 573.82 549.07 573.43 569.08 562.33" fill="#040f15"/>
        <polygon points="561.22 592.34 560.76 592.73 548.61 573.82 549.07 573.43 561.22 592.34" fill="#868686"/>
        <polygon points="581.23 581.25 580.77 581.64 560.76 592.73 561.22 592.34 581.23 581.25" fill="gray"/>
        <path d="M546.32,575.08l-.45.39a1.69,1.69,0,0,1,.13-2.22l.46-.4a1.72,1.72,0,0,0-.14,2.23" fill="#041016"/>
        <path d="M569.52,560a1.92,1.92,0,0,1,2.43.83l12,18.72a1.64,1.64,0,0,1-.36,2.38l-22.84,12.66a1.92,1.92,0,0,1-2.42-.84l-12-18.71a1.64,1.64,0,0,1,.36-2.38L569.52,560m11.71,21.2-12.15-18.91-20,11.1,12.15,18.91,20-11.1" fill="#071e2a"/>
        <polygon points="569.08 562.33 581.23 581.25 561.22 592.34 549.07 573.43 569.08 562.33" fill="#f4f4f4"/>
        <polygon points="557.27 575.33 558.89 577.85 556.22 579.33 554.6 576.81 557.27 575.33" fill="#c9c9c9"/>
        <polygon points="561.94 572.79 563.56 575.31 560.9 576.79 559.28 574.27 561.94 572.79" fill="#c9c9c9"/>
        <polygon points="566.62 570.26 568.24 572.78 565.57 574.26 563.95 571.74 566.62 570.26" fill="#c9c9c9"/>
        <polygon points="560.16 579.61 561.79 582.13 559.12 583.61 557.5 581.09 560.16 579.61" fill="#c9c9c9"/>
        <polygon points="564.84 577.06 566.46 579.59 563.79 581.06 562.18 578.54 564.84 577.06" fill="#c9c9c9"/>
        <polygon points="569.52 574.53 571.14 577.05 568.47 578.53 566.85 576.01 569.52 574.53" fill="#c9c9c9"/>
        <polygon points="563.06 583.88 564.68 586.4 562.02 587.88 560.4 585.36 563.06 583.88" fill="#c9c9c9"/>
        <polygon points="567.74 581.34 569.36 583.86 566.69 585.34 565.08 582.82 567.74 581.34" fill="#c9c9c9"/>
        <polygon points="572.42 578.81 574.04 581.33 571.37 582.8 569.75 580.28 572.42 578.81" fill="#c9c9c9"/>
        <polygon points="569.08 562.33 570.41 564.38 550.39 575.48 549.07 573.43 569.08 562.33" fill="#1e4471"/>
        <polygon points="583.61 581.97 560.77 594.63 560.32 595.02 583.15 582.36 583.38 582.2 583.83 581.81 583.61 581.97" fill="#040f15"/>
        <polygon points="558.35 593.79 557.89 594.18 545.87 575.47 546.32 575.08 558.35 593.79" fill="#041016"/>
        <path d="M560.77,594.63l-.45.39a1.92,1.92,0,0,1-2.43-.84l.46-.39a1.92,1.92,0,0,0,2.42.84" fill="#041016"/>
        <path d="M552,598.12s-8.17-8.64-8.37-10.66c-.43-4.36,3.26-10.44,3.26-10.44l5.28,7.93a3,3,0,0,0,.73-3.89c-1.85-3.52-1.19-4.27-.14-4.55,0,0,4.64,7,5.47,9.13,1.87,4.77-.31,7.56-.31,7.56L552,598.12" fill="#956344"/>
        <path d="M602.5,560.54c-9.15-2.52-11,7.7-12.63,14-2.63,9.93-3.55,18.46-7.12,28.1-6.94-3.51-17-7.68-23.78-11.47-2.36-1.32-6.11-.34-7.31,1.19-2,2.52-1.64,4.36.07,7,1.21,1.89,26.93,24.55,37.22,21s17.52-37.85,18.92-45.68c1-5.57,1.55-12.29-5.37-14.2h0" fill="#00bceb"/>
        <path d="M471.87,764.84l-47-31c-1.73-1-3.29-1.08-4.43-.43l-2.53,1.48h0c-1.13.65-1.83,2-1.83,4l-.17,59.06a3.75,3.75,0,0,0,1.7,2.94,1.12,1.12,0,0,0,1.33,0l-.12.1,2.53-1.48a1.18,1.18,0,0,0,.5-1.1l.17-59,0-.28.26.12,46.88,31a5.8,5.8,0,0,1,2,2.11A5.71,5.71,0,0,1,472,775l-.16,55.14a3.75,3.75,0,0,0,1.71,3,1.14,1.14,0,0,0,1.32,0l-.12.08,2.54-1.47a1.22,1.22,0,0,0,.5-1.09l.15-55.15a13.77,13.77,0,0,0-6.09-10.69" fill="#888"/>
        <path d="M534.62,731.1l-46.87-31c-1.74-1-3.31-1.1-4.44-.43l-2.53,1.47h0c-1.13.65-1.83,2-1.83,4l-.17,59.05a3.75,3.75,0,0,0,1.69,2.93,1.1,1.1,0,0,0,1.34,0l-.12.1,2.54-1.47a1.19,1.19,0,0,0,.49-1.09l.17-59.05,0-.29.18.08,46.95,31a5.93,5.93,0,0,1,2,2.1,5.84,5.84,0,0,1,.82,2.79l-.15,55.14a3.74,3.74,0,0,0,1.69,2.94,1.13,1.13,0,0,0,1.33,0l-.11.1,2.53-1.48a1.17,1.17,0,0,0,.5-1.08l.15-55.16a13.7,13.7,0,0,0-6.19-10.74" fill="#888"/>
        <polygon points="417.5 734.12 477.01 699.54 476.99 699.55 417.49 734.13 417.5 734.12" fill="#1e4471"/>
        <path d="M482.58,694.41l-.3-.1c-.06,0-4.26-3.21-8.82-.85L414,728a5.22,5.22,0,0,1,2.71-.5,17.14,17.14,0,0,1,2.81.4,27.48,27.48,0,0,1,3.3.94l.3.11,52,33.74,55.87-36.94-48.34-31.38" fill="#1e4471"/>
        <path d="M490.19,714c9.74,5.67,9.69,14.85-.11,20.51s-25.65,5.65-35.39,0S445,719.66,454.8,714s25.65-5.65,35.39,0m-26.66,19.14,24.27-14-6.45-3.75-24.27,14,6.45,3.75" fill="#e3241b"/>
        <polygon points="457.08 729.38 463.53 733.13 487.8 719.12 481.35 715.37 457.08 729.38" fill="#fff"/>
        <path d="M557.53,643.84a5.25,5.25,0,0,0-1.95-2.2,1.94,1.94,0,0,0-1.56-.27,7,7,0,0,0-.75.36l-59.5,34.58a5.42,5.42,0,0,1,.75-.36,1.94,1.94,0,0,1,1.56.27,5.23,5.23,0,0,1,1.94,2.2c.72,1.46.7,2.9,0,3.53l-.84.49a6.51,6.51,0,0,0-1.25,1,11.69,11.69,0,0,0-2.68,6.06l-8.2,68.51a17.25,17.25,0,0,1-1.14,4.86,8.91,8.91,0,0,1-3,4,2.55,2.55,0,0,1-.39.24l59.51-34.58.39-.23a8.88,8.88,0,0,0,3-4,17.67,17.67,0,0,0,1.13-4.86L552.8,655a11.53,11.53,0,0,1,2.68-6.06,6.61,6.61,0,0,1,.84-.75l1-.6c.88-.51,1-2.1.18-3.71" fill="#1e4471"/>
        <path d="M498,678.42c.85,1.72.68,3.43-.38,3.8-.14.07-.27.13-.42.22a6.51,6.51,0,0,0-1.25,1,11.69,11.69,0,0,0-2.68,6.06l-8.2,68.5a17.24,17.24,0,0,1-1.14,4.87,8.91,8.91,0,0,1-3,4,6.37,6.37,0,0,1-3.36,1.1,12,12,0,0,1-6.23-1.9l-48-31.14c-.46-.16-.89-.28-1.39-.42a14.83,14.83,0,0,0-3.22-.57,2.58,2.58,0,0,0-1.29.17,1.77,1.77,0,0,1-1.77-.17,5.18,5.18,0,0,1-1.77-1.85c-1-1.68-1-3.51,0-4.07a5.22,5.22,0,0,1,2.71-.5,17.14,17.14,0,0,1,2.81.4,27.48,27.48,0,0,1,3.3.94l.3.11s50.53,32.42,51.38,32.53a4,4,0,0,0,2.21-.28,5.64,5.64,0,0,0,2.77-3.46,13,13,0,0,0,.68-3.21l8.24-68.82a15.23,15.23,0,0,1,3.52-7.9,7.08,7.08,0,0,1,2.64-1.9,1.94,1.94,0,0,1,1.56.27,5.23,5.23,0,0,1,1.94,2.2" fill="#1c2936"/>
        <polygon points="180.2 259.78 144.5 442.79 150.18 445.12 156.41 442.76 192.82 257.17 180.2 259.78" fill="#7a7a7a"/>
        <polygon points="180.2 259.78 144.5 442.79 150.22 446.25 187.42 259.33 180.2 259.78" fill="#4b4b4b"/>
        <polygon points="402.75 127.32 367.05 310.33 372.72 312.66 379.2 310.13 415.36 124.71 402.75 127.32" fill="#7a7a7a"/>
        <polygon points="402.75 127.32 367.05 310.33 372.56 313.17 409.96 126.88 402.75 127.32" fill="#4b4b4b"/>
        <path d="M74.36,561.86H25.54l3.75,44.73c0,.21,0,.42.05.63.36,2.77,2.37,5.49,6,7.61,8.1,4.68,21.19,4.68,29.23,0,4.56-2.65,6.52-6.23,5.89-9.68l3.86-43.29" fill="#9e9ea2"/>
        <path d="M50,575a34,34,0,0,1-16.7-4c-4.26-2.46-6.61-5.66-6.61-9s2.31-6.5,6.5-8.94a33.78,33.78,0,0,1,16.65-4,34,34,0,0,1,16.7,4c4.26,2.46,6.61,5.65,6.61,9s-2.31,6.49-6.5,8.93A33.7,33.7,0,0,1,50,575" fill="#473b2f"/>
        <path d="M49.87,550.22A32.82,32.82,0,0,1,66,554c3.88,2.24,6,5.08,6,8s-2.09,5.69-5.91,7.91a32.53,32.53,0,0,1-16,3.82,32.82,32.82,0,0,1-16.1-3.82c-3.88-2.24-6-5.08-6-8S30,556.26,33.82,554c4.24-2.47,9.94-3.82,16-3.82m0-2.37c-6.25,0-12.49,1.38-17.24,4.14-9.51,5.52-9.46,14.48.11,20,4.78,2.76,11,4.14,17.29,4.14s12.49-1.38,17.24-4.14c9.5-5.52,9.45-14.48-.11-20-4.79-2.76-11-4.14-17.29-4.14" fill="#9e9ea2"/>
        <path d="M48,479.2s-18,21.82-14.81,35.67c2.73,11.69,16,25.86,16,25.86s14.23-16.48,15.68-24.67c2.85-16-2.51-25.25-16.9-36.86" fill="#34955a"/>
        <path d="M49.19,498.05s.27,17.66.79,35.31c.25,8.82.56,17.64.86,24.25s.54,11,.54,11v0a1.43,1.43,0,0,1-2.86.14v-.06l-.1-11.05c0-6.63,0-15.47.13-24.3.2-17.66.64-35.32.64-35.32" fill="#41ba71"/>
        <path d="M60.59,551.21S55.2,531,68.66,521.35s25.74-12.2,25.74-12.2,14.19,50.25-33.81,42.06" fill="#34955a"/>
        <path d="M90.6,518.34S87.93,521,84,525s-9,9.44-13.83,15.09c-1.21,1.41-2.37,2.85-3.51,4.28s-2.22,2.85-3.18,4.27c-.51.7-1,1.41-1.38,2.11l-.64,1c-.14.3-.38.72-.52,1a31.63,31.63,0,0,0-1.47,4.06c-.77,2.62-1.24,4.88-1.55,6.45s-.44,2.47-.44,2.47a1.43,1.43,0,1,1-2.83-.43v-.07h0s.19-1,.59-2.55,1-3.9,2-6.6a32.68,32.68,0,0,1,1.84-4.33c.2-.4.38-.68.62-1.1s.48-.71.73-1.06A23.91,23.91,0,0,1,62,547.48c1.06-1.43,2.25-2.81,3.45-4.21s2.47-2.79,3.75-4.15c5.11-5.46,10.49-10.64,14.56-14.47s6.87-6.31,6.87-6.31" fill="#41ba71"/>
        <path d="M0,514.06s23.77-2.93,33.25,8.9,5.41,27.63,5.41,27.63-17.73-.69-25.8-6.5S0,514.06,0,514.06" fill="#34955a"/>
        <path d="M8.34,520s3.05,1.95,7.38,5.24a128,128,0,0,1,14.93,13.23c1.25,1.32,2.48,2.67,3.63,4.06s2.25,2.77,3.26,4.17a50.31,50.31,0,0,1,4.86,8.11,32.93,32.93,0,0,1,1.45,3.55,28,28,0,0,1,.85,2.85c.22.8.3,1.46.39,1.89s.13.68.13.68a1.43,1.43,0,1,1-2.82.52v-.06l0-.12s0-.21-.08-.6-.1-1-.26-1.72-.33-1.64-.66-2.65a29.85,29.85,0,0,0-1.18-3.36,48.48,48.48,0,0,0-4.26-8c-.91-1.4-1.9-2.82-3-4.21s-2.2-2.79-3.36-4.16a127.18,127.18,0,0,0-14.15-13.84c-4.15-3.49-7.1-5.59-7.1-5.59" fill="#41ba71"/>
        <path d="M416.74,5.07,161.43,152.47a15.71,15.71,0,0,0-7.86,13.65l.6,210.91a5.5,5.5,0,0,0,8.25,4.75l255.31-147.4a15.7,15.7,0,0,0,7.85-13.65L425,9.81a5.5,5.5,0,0,0-8.25-4.74" fill="#fff"/>
        <path d="M416.74,5.07,161.43,152.47a15.71,15.71,0,0,0-7.86,13.65l.6,210.91a5.5,5.5,0,0,0,8.25,4.75l255.31-147.4a15.7,15.7,0,0,0,7.85-13.65L425,9.81A5.5,5.5,0,0,0,416.74,5.07Z" fill="none" stroke="#141210" stroke-miterlimit="10" stroke-width="8.64"/>
        <polygon points="228.54 240.06 228.68 288.07 218.47 293.97 218.34 245.96 228.54 240.06" fill="#74bf4b"/>
        <polygon points="249.94 200.11 250.16 275.68 239.95 281.57 239.74 206 249.94 200.11" fill="#41ba71"/>
        <polygon points="293.14 259.56 293.15 264.87 197.04 320.36 197.02 315.05 293.14 259.56" fill="#9e9ea2"/>
        <polygon points="266.59 285.24 266.6 290.55 197.07 330.7 197.05 325.39 266.59 285.24" fill="#9e9ea2"/>
        <polygon points="207.12 270.63 207.21 300.47 197 306.37 196.91 276.53 207.12 270.63" fill="#e3241b"/>
        <polygon points="271.47 203.4 271.64 263.27 261.43 269.17 261.26 209.3 271.47 203.4" fill="#1e8abe"/>
        <polygon points="292.86 161.44 293.11 250.88 282.9 256.77 282.65 167.34 292.86 161.44" fill="#1e4471"/>
        <polygon points="382.33 71.86 382.38 88.18 196.69 195.39 196.64 179.07 382.33 71.86" fill="#9e9ea2"/>
        <path d="M376.75,152.46c.42-.24.75-.05.75.42l.12,40.73a1.65,1.65,0,0,1-.75,1.29c-.41.24-.75,0-.75-.43L376,153.75a1.65,1.65,0,0,1,.75-1.29" fill="#9e9ea2"/>
        <path d="M381.91,188.85l0,10.74L362.1,211.05l0-10.74,14-8.11v2.27c0,.48.34.67.75.43a1.65,1.65,0,0,0,.75-1.29v-2.28l4.3-2.48" fill="#9e9ea2"/>
        <polygon points="366.93 227.31 366.94 232.62 324.82 256.94 324.8 251.63 366.93 227.31" fill="#9e9ea2"/>
        <polygon points="381.96 208.27 381.98 213.59 324.79 246.61 324.77 241.29 381.96 208.27" fill="#9e9ea2"/>
        <path d="M350.11,182.09l.29-.1c.38,0,.56.36.4.89l-9.56,32.06a1.65,1.65,0,0,1-.69.93l-.29.1c-.38,0-.56-.36-.4-.89L349.43,183a1.61,1.61,0,0,1,.68-.92" fill="#9e9ea2"/>
        <path d="M344.56,210.41l0,10.74-19.84,11.46,0-10.74,15.84-9.15-.7,2.36c-.16.53,0,.93.4.89l.29-.1a1.65,1.65,0,0,0,.69-.93l.94-3.15,2.38-1.38" fill="#9e9ea2"/>
        <path d="M373.71,119.08a14.59,14.59,0,0,1,5.91,5.83l.12.19.37.74.24.47.21.5c.11.27.22.52.32.79l.08.24a28.67,28.67,0,0,1,1.56,9.69A46.7,46.7,0,0,1,381,149l-.08.32c-.1.39-.2.77-.32,1.16-.06.24-.13.49-.2.74l-.24.75-.36,1.16-.12.33c-.63,1.86-1.36,3.72-2.18,5.54l0-6.1c0-.47-.33-.66-.75-.42a1.65,1.65,0,0,0-.75,1.29l0,8.35a67.8,67.8,0,0,1-9.3,13.79l-.22.27c-.27.31-.55.6-.83.91l-.52.56c-.18.19-.37.37-.55.57l-.84.84-.25.25-.28.27a47.52,47.52,0,0,1-7.74,6.07c-.38.25-.77.48-1.16.71l-.32.18-.33.18,0-9.41.63-.36a33.49,33.49,0,0,0,6.53-5l.17-.17.6-.6.39-.41c.13-.13.25-.26.37-.4l.59-.64.16-.19a47.82,47.82,0,0,0,9.2-15.93l.09-.25c.09-.27.17-.55.26-.82s.11-.36.17-.54.1-.35.14-.52.16-.54.23-.82l.05-.23a32.44,32.44,0,0,0,1.08-8.14,20.23,20.23,0,0,0-1.11-6.87l-.07-.17c-.07-.19-.14-.37-.22-.55l-.15-.36-.17-.33c-.09-.18-.18-.36-.27-.52l-.08-.15a10.31,10.31,0,0,0-3.86-4c-.15-.09-.31-.17-.47-.25l5.78-10" fill="#1e8abe"/>
        <path d="M373.33,118.89l.38.19-5.78,10c-.24-.12-.5-.23-.75-.33a7.19,7.19,0,0,0-.78-.27,4.57,4.57,0,0,0-.61-.16l-.19,0a7.62,7.62,0,0,0-.81-.14,8.21,8.21,0,0,0-.84-.08l-.85,0h-.27a5.83,5.83,0,0,0-.59,0h-.12l-.25,0-.39,0-.19,0h-.13l-.27,0-.18,0a20.28,20.28,0,0,0-6.53,2.51c-.22.12-.43.25-.64.38l0-9.41.17-.11.21-.12.31-.18c.28-.17.57-.32.85-.48l.17-.09,1.2-.61.14-.06q.62-.3,1.23-.57l.09,0c.42-.18.84-.34,1.26-.5l.06,0c.43-.16.85-.31,1.28-.43s.9-.28,1.32-.38a20.86,20.86,0,0,1,3.78-.63h.15c.35,0,.68,0,1,0h.39l.76,0c.19,0,.38,0,.57.06a4.87,4.87,0,0,1,.55.06c.24,0,.48.06.71.11l.4.07.77.19.33.09.78.25.29.11.75.31.29.14" fill="#e3241b"/>
        <path d="M353.66,177.29c-.33.18-.66.34-1.09.55l-.9.42-1,.38c-.32.12-.64.22-1,.33s-.54.16-.94.26l-1,.22-.2,0c-.19,0-.38.06-.7.1l-.25,0-.38,0-.27,0h-.49a10.47,10.47,0,0,1-5.4-1.31l-.44-.27c-.23-.16-.46-.31-.67-.48a6.42,6.42,0,0,1-.63-.54,8,8,0,0,1-.59-.58c-.15-.17-.3-.33-.44-.51l-.1-.12c-.17-.22-.33-.44-.5-.68l-.19-.3-.16-.27-.14-.22-.08-.14c-.05-.11-.11-.21-.29-.58,0-.08-.09-.16-.17-.34s-.07-.16-.16-.37l-.08-.2-.07-.17-.07-.2-.08-.22c-.05-.15-.11-.3-.16-.46s-.09-.3-.14-.46-.09-.3-.13-.46l-.12-.5c0-.17-.07-.32-.11-.48l-.09-.56c0-.15-.06-.3-.08-.47s-.05-.42-.08-.62,0-.29-.05-.45,0-.49-.05-.73l0-.38c0-.38,0-.77,0-1.16s0-.79,0-1.19l0-.41c0-.26,0-.53.05-.8s0-.33,0-.49,0-.48.08-.72.05-.37.08-.56l.09-.66c0-.2.07-.4.11-.6s.07-.42.11-.64.08-.41.13-.62.09-.41.13-.61.11-.44.16-.66.05-.2.09-.35l.06-.23c0-.12.06-.25.1-.37l.08-.27.05-.2c0-.08,0-.16.12-.43s.1-.28.15-.45.13-.43.33-1l.07-.2c.07-.22.14-.44.22-.66s.17-.42.24-.62.16-.43.25-.65l.26-.64c.08-.2.16-.41.26-.61s.2-.45.3-.68.17-.4.26-.58.23-.5.35-.74l.26-.53c.14-.28.29-.57.45-.85l.21-.41c.23-.43.46-.85.7-1.26s.49-.84.74-1.24l.26-.41.5-.79.34-.49c.14-.22.3-.45.45-.67l.38-.52c.14-.21.29-.4.44-.61l.4-.52c.14-.19.28-.38.43-.56l.43-.53.42-.51.46-.54c.07-.08.14-.15.41-.47.16-.16.31-.33.56-.6h0l0,0,0,0,0,0,0,0,.21-.23.33-.34.39-.39.55-.54.21-.2.38-.36.28-.25c.3-.28.61-.55,1.06-.93.27-.23.55-.45.83-.67s.51-.39,1.09-.82c.28-.21.57-.41,1-.69l.89-.57,0-9.41c-.18.1-.35.21-.52.32s-.29.17-.5.31l-.18.12c-.36.23-.73.48-1.22.82l-.16.12-.21.15-1,.7-.2.15-.87.68-.24.2-.24.2-.76.64-.44.37-.15.14-.62.56-.72.67-.18.16c0,.06-.11.11-.39.38l-.58.58-.25.24-.23.24c-.06,0-.11.11-.34.35q-1.67,1.74-3.24,3.67c-.38.46-.76,1-1.16,1.47s-.73,1-1.14,1.53-.69,1-1.1,1.57-.65,1-1.06,1.6c-.31.47-.6.95-.9,1.43l-.12.2-.83,1.42-.14.26c-.26.46-.52.92-.77,1.39l-.16.32c-.24.44-.48.9-.71,1.34l-.18.38c-.21.44-.42.87-.63,1.32-.07.14-.13.28-.19.43-.2.42-.39.85-.58,1.27-.07.16-.13.32-.2.49l-.52,1.23-.2.54c-.16.4-.31.79-.46,1.19l-.21.61c-.13.37-.27.75-.39,1.13-.08.22-.14.44-.22.66l-.16.5-.06.22-.07.2-.08.29-.23.79,0,.2-.06.21-.2.74c0,.08,0,.17-.08.3s0,.19-.09.4l-.08.34-.15.6-.24,1.16c0,.19-.08.36-.11.54l-.21,1.21c0,.15-.05.31-.07.47-.07.41-.12.82-.18,1.23,0,.14,0,.28-.06.42,0,.42-.09.84-.13,1.27l0,.35c0,.44-.06.86-.08,1.29v.3c0,.44,0,.88,0,1.31v.25c0,.45,0,.89,0,1.33v.19c0,.45,0,.9.08,1.48s.09.9.15,1.44.13.89.21,1.4.17.88.27,1.35.21.87.34,1.3a21.36,21.36,0,0,0,1.34,3.5l.1.2c.14.27.28.54.43.79l.24.4.11.2.23.34c.1.16.21.3.31.46l.12.15.26.35.2.25.16.19.13.16.14.16.51.54.23.23c.16.16.32.3.49.45l.12.1.18.17c.12.1.24.2.37.29l.34.25.17.12c.21.15.43.28.64.42l.12.08.15.1c.27.15.55.3.84.44l.12.07c.29.15.59.27,1,.44s.63.23,1,.36.68.19,1.08.28.72.14,1.12.2.76.09,1.16.12a18.39,18.39,0,0,0,2.35,0l.18,0c.36,0,.73-.06,1.09-.11l.16,0,.28,0,.77-.14.41-.09.82-.18.64-.17.35-.1,1.89-6.31a1.58,1.58,0,0,1,.69-.92l.28-.1c.38,0,.57.36.4.89l-1.7,5.93.93-.36.4-.16,1-.44.37-.16,1-.49.39-.22.52-.28,0-9.41" fill="#74bf4b"/>
        <polygon points="156.35 309.91 160.53 312.19 168.23 307.71 164.05 305.44 156.35 309.91" fill="#545253"/>
        <polygon points="158.09 279.4 161.03 281 166.43 277.86 163.5 276.26 158.09 279.4" fill="#545253"/>
        <polygon points="160.92 310.84 166.33 307.7 166.43 277.86 161.03 281 160.92 310.84" fill="#4e4b4c"/>
        <polygon points="157.99 309.24 160.92 310.84 161.03 281 158.09 279.4 157.99 309.24" fill="#393636"/>
        <path d="M225.64,390.55c0-1.07-2.82-6.46-2.82-6.46-2.33-4.83-9.15-.54-10.21,1-1.68,2.44-.86,9.08,3.14,14.63,1.27,1.75,9.81-5.09,9.89-9.17" fill="#956356"/>
        <path d="M229.92,398.88l-.14-.45c-.09-.29-.23-.69-.4-1.18-.35-1-.84-2.23-1.44-3.47-.29-.63-.62-1.24-.95-1.82-.17-.28-.34-.55-.49-.81l-.5-.73-.46-.6c-.13-.18-.28-.32-.39-.45l-.35-.39a1.47,1.47,0,1,0-2.17,2l0,0,.09.09.27.27a3.22,3.22,0,0,1,.31.32l.39.45c.13.18.28.38.44.58l.46.69c.31.48.63,1,.93,1.57.6,1.11,1.13,2.28,1.5,3.17.18.44.33.81.43,1.07s.15.4.15.4v0a1.2,1.2,0,0,0,2.27-.78" fill="#956356"/>
        <path d="M229.49,387.23s.1-.72-1.86-.85c-.81-.06-6.35-4.95-7.23-4.15s3.15,5.34,3.15,5.34,2.74,1.73,4.43,1.09,1.51-1.43,1.51-1.43" fill="#956356"/>
        <path d="M196.86,537.85c-1.77.19-5.62.89-8.41,1.19a35.61,35.61,0,0,1-8.86-.33s-8.37,1.34-9.31,3.45-2.5,6-2.11,8c1,5,7.38,5.91,10.16,5.07,3-.9,8.56-3.18,11.7-4.29,3-1,9.68-2,11.83-5.72,2.7-4.68.38-7.91-5-7.34" fill="#4d4c4c"/>
        <path d="M162.51,523.84c-8.81.94-15.13.92-15.13.92s-12.42.9-12.6,3.69c0,0-1.69,6.26-1.69,6.89,0,6.12,6.95,6.6,9.61,5.59s8-4.49,11.84-5.33c3.36-.73,6.82-.74,12.24-4.78,3.52-2.63.11-7.45-4.27-7" fill="#4d4c4c"/>
        <path d="M171.59,409.91A18,18,0,0,0,193,396.1a20.24,20.24,0,0,0,.38-3v0h0s0,0,0,.06a19.15,19.15,0,0,1-.46,2.1,18.35,18.35,0,0,1-.75,2.14l-.12.27-.19.42c-.25.53-.54,1.06-.85,1.58a17.92,17.92,0,0,1-2.26,3,18,18,0,0,1-4.3,3.36,17.95,17.95,0,0,1-14.73,1.24A18.59,18.59,0,0,1,167,406a17.88,17.88,0,0,1-3.93-3,12.34,12.34,0,0,1-.85-.92l-.29-.34c-.19-.22-.37-.46-.55-.7s-.36-.49-.53-.75l-.25-.38-.21-.36c-.14-.23-.27-.46-.4-.7s-.25-.48-.37-.74c0-.1-.09-.2-.14-.31.08.32.17.65.25,1,.26,1.08.54,2.33.84,3.74a17.94,17.94,0,0,0,11,7.36" fill="#122c3c"/>
        <path d="M194,394.22c-.12-2.32-.23-4.17-.46-5.9-.07-.45-.13-.89-.24-1.41,0-.28-.11-.55-.2-.92s-.21-.8-.42-1.41l-.21-.58-.15-.37-.18-.44-.21-.45-.39-.78c-.13-.25-.27-.5-.41-.73l-.23-.37-.25-.4c-.18-.26-.35-.51-.54-.76s-.37-.49-.56-.72l-.29-.35c-.28-.31-.57-.62-.86-.92a18.12,18.12,0,0,0-4-3,18.51,18.51,0,0,0-2.7-1.23,17.88,17.88,0,0,0-17.14,2.83,17,17,0,0,0-1.94,1.78,18.13,18.13,0,0,0-2.28,3,17.7,17.7,0,0,0-.86,1.59c-.07.15-.13.29-.2.43l-.12.28a19.38,19.38,0,0,0-.77,2.2l-.5,2.31-.13.62a18,18,0,0,0,2.79,14c-.3-1.41-.58-2.66-.84-3.74-.08-.36-.17-.69-.25-1a1,1,0,0,0,0-.1c-.06-.13-.11-.27-.17-.4l-.13-.33-.17-.48a8.91,8.91,0,0,1-.28-.95c0-.2-.05-.27-.06-.35s0-.07.08,0a20.91,20.91,0,0,1,.77,2.59c.05.1.1.2.14.3.12.26.25.5.37.74s.26.47.4.7l.21.36.25.38c.17.26.35.51.53.75s.36.48.55.7l.29.34a12.34,12.34,0,0,0,.85.92,17.88,17.88,0,0,0,3.93,3,18.59,18.59,0,0,0,2.7,1.22A17.88,17.88,0,0,0,184.43,406a18,18,0,0,0,4.3-3.36,17.92,17.92,0,0,0,2.26-3c.31-.52.6-1.05.85-1.58.06-.14.13-.28.19-.41l.12-.28a17.85,17.85,0,0,0,.75-2.15,18.55,18.55,0,0,0,.46-2.09c0-.05,0-.07,0-.06h0v0a20.24,20.24,0,0,1-.38,3,18,18,0,0,1-32.41,6.45c.2.95.41,2,.61,3,.52,2.69,1.08,5.76,1.6,9.14s1.08,7.07,1.55,11,1,8.07,1.36,12.39.75,8.78,1.06,13.33.5,9.18.67,13.82.31,9.35.47,14c.07,2.33.15,4.64.22,6.93s.12,4.49.18,6.68c.12,4.47.23,8.78.33,12.88s.2,7.94.28,11.5.15,6.83.19,9.72.08,5.41.11,7.49c0,4.15.05,6.52.05,6.52a7.26,7.26,0,0,0,14.51.48s.05-.59.13-1.69.19-2.73.37-4.79.37-4.56.64-7.43.56-6.11.92-9.64.76-7.34,1.21-11.38q.34-3,.7-6.21c.26-2.11.53-4.27.79-6.46s.55-4.51.83-6.81.59-4.57.89-6.89.6-4.65.9-7l.23-1.76.11-.88.06-.44v-.17s0-.25,0-.17l0-.22.31-3.61c.41-4.82.75-9.65,1-14.41s.57-9.46.76-14,.36-9,.45-13.16.17-8.18.17-11.88,0-7.1-.06-10.15-.14-5.75-.26-8" fill="#1e4471"/>
        <path d="M157.39,369.52a18,18,0,0,0-20.87,14.63,18.64,18.64,0,0,0-.26,3.78V388s.09,2.18.25,6c.07,1.91.15,4.24.24,6.9s.17,5.68.24,9,.15,6.84.21,10.59c0,1.88.06,3.81.09,5.78s0,4,0,6c0,4.09.07,8.32,0,12.6q0,3.19,0,6.43t-.05,6.44c-.07,4.34-.13,8.69-.19,13s-.22,8.53-.32,12.63-.25,8.05-.37,11.81-.27,7.3-.4,10.58-.28,6.28-.41,8.94-.24,5-.33,6.89S135.1,525,135,526s-.09,1.56-.09,1.56h0a7,7,0,0,0,14,1.5s.08-.54.24-1.55.38-2.5.7-4.39.7-4.18,1.14-6.81.91-5.6,1.48-8.84,1.18-6.74,1.82-10.44,1.36-7.62,2.08-11.66L161,460l.58-3.23c.17-1.12.35-2.24.52-3.36q.5-3.27,1-6.5c.65-4.29,1.28-8.5,1.89-12.58s1.2-8,1.79-11.73,1.13-7.26,1.65-10.51,1-6.23,1.45-8.87.83-4.94,1.15-6.84c.66-3.79,1.05-6,1.05-6a18,18,0,0,0-14.64-20.86" fill="#1e4471"/>
        <path d="M139.81,369.32c-5.16,13.79-4.35,29,.35,32.52s22.27,15.28,30.52,16.64c4,.65,20.74-4.71,23.06-10.84,2.68-7.1-1-24.82-1-24.82s-47.77-27.28-52.93-13.5" fill="#1e4471"/>
        <path d="M147.56,331.37a18.85,18.85,0,0,1-2.57-.26,3.17,3.17,0,0,1,.4.18,5.5,5.5,0,0,1,1.05.69,7.28,7.28,0,0,1,1.55,1.76,7.34,7.34,0,0,1,.95,2.24c0,.11.09.37.12.57s.06.42.07.63,0,.17,0,.17v-.06c0,.2,0-.49,0,.44h0l0,0s0-.13,0-.25l.1-.79.26-1.85.51-3.37c-.86,0-1.71,0-2.52-.06" fill="#e75a38"/>
        <path d="M183,334a5.64,5.64,0,0,0-5.46-3.72h-.14l-.94,0c-.63,0-1.55,0-2.72.11s-2.59.11-4.21.2l-5.43.29-6.35.33c-2.22.09-4.55.18-6.86.2h-.85l-.51,3.37-.26,1.85-.1.79c0,.12,0,.27,0,.25l0,0h0c0-.93,0-.24,0-.44v.06s0,.14,0-.17,0-.42-.07-.63-.1-.46-.12-.57a7.34,7.34,0,0,0-.95-2.24,7.08,7.08,0,0,0-1.54-1.76,5.83,5.83,0,0,0-1.06-.69,3.17,3.17,0,0,0-.4-.18l-.13,0a1.1,1.1,0,0,1-.28-.08s0,0,.27.06l.14.05a18.85,18.85,0,0,0,2.57.26c.81,0,1.66.06,2.52.06.23-1.49.45-3,.67-4.44.39-2.61.76-5.18,1.13-7.67l1-7.21c.32-2.3.56-4.47.81-6.48s.43-3.85.61-5.49.3-3.06.42-4.24.17-2.1.22-2.73.07-1,.07-1v0a8.81,8.81,0,0,0-17.41-2.43l-.2.95c-.12.63-.32,1.54-.53,2.71s-.5,2.58-.76,4.21-.61,3.46-.9,5.48-.65,4.18-.95,6.5-.61,4.75-.94,7.27-.59,5.15-.85,7.83-.52,5.39-.71,8.22l-.13,2.18-.06,1.23v1.41c0,.95,0,.28,0,.5l0,.36a6.31,6.31,0,0,0,.1.76,5.51,5.51,0,0,0,.14.69,9.71,9.71,0,0,0,.31,1.05,10.69,10.69,0,0,0,.92,1.89,10.29,10.29,0,0,0,2.22,2.51,11.56,11.56,0,0,0,1.89,1.24,13.73,13.73,0,0,0,1.47.64,14.42,14.42,0,0,0,2.19.61c.62.13,1.17.21,1.69.27a33.2,33.2,0,0,0,5.19.11c1.53-.06,3-.22,4.34-.37,2.75-.33,5.29-.76,7.68-1.23s4.59-1,6.62-1.48,3.87-1,5.5-1.48,3-.92,4.18-1.3,2.06-.7,2.68-.91l1-.36A5.65,5.65,0,0,0,183,334" fill="#fbab2c"/>
        <g opacity="0.1">
          <g clip-path="url(#clip-path-3)">
            <g clip-path="url(#clip-path-3)">
              <path d="M183,334a5.64,5.64,0,0,0-5.46-3.72h-.14l-.94,0c-.63,0-1.55,0-2.72.11s-2.59.11-4.21.2l-5.43.29-6.35.33c-2.22.09-4.55.18-6.86.2h-.85l-.51,3.37-.26,1.85-.1.79c0,.12,0,.27,0,.25l0,0h0c0-.93,0-.24,0-.44v.06s0,.14,0-.17,0-.42-.07-.63-.1-.46-.12-.57a7.34,7.34,0,0,0-.95-2.24,7.08,7.08,0,0,0-1.54-1.76,5.83,5.83,0,0,0-1.06-.69,3.17,3.17,0,0,0-.4-.18l-.13,0a1.1,1.1,0,0,1-.28-.08s0,0,.27.06l.14.05a18.85,18.85,0,0,0,2.57.26c.81,0,1.66.06,2.52.06.23-1.49.45-3,.67-4.44.39-2.61.76-5.18,1.13-7.67l1-7.21c.32-2.3.56-4.47.81-6.48s.43-3.85.61-5.49l0-.25a20.36,20.36,0,0,1-11.18,3.52,19.2,19.2,0,0,1-6.18-1l-.27.44c-1.37,13.81-.52,27.75-1.69,41.58,0,.26-.05.52-.08.78l.36.31a11.56,11.56,0,0,0,1.89,1.24,13.73,13.73,0,0,0,1.47.64,14.42,14.42,0,0,0,2.19.61c.62.13,1.17.21,1.69.27a33.2,33.2,0,0,0,5.19.11c1.53-.06,3-.22,4.34-.37,2.75-.33,5.29-.76,7.68-1.23s4.59-1,6.62-1.48,3.87-1,5.5-1.48,3-.92,4.18-1.3,2.06-.7,2.68-.91l1-.36A5.65,5.65,0,0,0,183,334" fill="#fbab2c"/>
            </g>
          </g>
        </g>
        <path d="M171.51,279.77c-11-3.69-19.47-4.27-25.46-2.06-4.18,1.54-7.47,6.19-9.31,16.21-1.71,9.27,4.19,53.56,3.42,65.32-.64,9.92-2.63,7.76-3.33,17.79-.73,10.55,26.19,22.15,36.4,22.15a37.21,37.21,0,0,0,20.69-6.62s-.31-13.13-1.75-20.86c-.53-2.82.46-29.42,5.53-44.4,2.56-7.56,4.19-16.26,1.78-22.95s-12.82-19.49-28-24.58" fill="#fbab2c"/>
        <g opacity="0.1">
          <g clip-path="url(#clip-path-5)">
            <g clip-path="url(#clip-path-5)">
              <path d="M199.28,303.84c-4.88,1.61-9.73,3.32-14.64,4.82-.1.22-.26.43-.39.68-10.47,21.07-.31,50.93,2.8,56.16a13.08,13.08,0,0,0,5,4.8c-.2-6.33,1-29.43,5.64-43,2.56-7.56,4.19-16.26,1.78-22.95-.06-.17-.13-.34-.2-.51" fill="#141211"/>
            </g>
          </g>
        </g>
        <path d="M161.53,282.2c0,5.31,17.07,7.79,17.07,2.48l2.13-18.18H162.94Z" fill="#956356"/>
        <path d="M161.77,278.33l-.69,1.61c-.74,1.69-1.7,3.73-.49,5.09,5.22,5.85,18.33,5,21.85-.18L179,281.24c-5.71,2.23-15.66,2.47-17.23-2.91" fill="#eff1f3"/>
        <path d="M157.45,266.05c-.06,8,14.27,12.61,14.27,12.61,7.76.06,13.45-3.47,13.51-11.65l.15-20.6-29.44,4.75Z" fill="#956356"/>
        <path d="M178.7,236.22c-4.48-2-20.26-2.64-23.23,8.52C150.6,263.07,160,273.9,160,273.9s6.09,4.72,9.68,1.93c4.94-3.83,11.59-10.05,11.63-16.32s4-7.22,4-7.22c9.74-6.68-.28-13.23-6.64-16.07" fill="#252323"/>
        <path d="M177.45,260.51c-.46,3.52,1.84,7.42,4.7,6.14l0-6.82s-4.11-4.1-4.75.68" fill="#956356"/>
        <path d="M220.33,383c-5-10.35-11.31-26.51-17.56-35.48-2.07-12.18-2.05-27.5-2.62-39.16-.2-10.73-16.89-11.06-17.56-.41-.6,18-2.37,38.77,7.36,55.12,1.1,1.49-1.45-1.67-.25-.26,3.26,3.66,9.05,11.46,12.16,15.62A140.3,140.3,0,0,0,211,389.17c4.14,4.63,12-.64,9.32-6.18" fill="#fbab2c"/>
        <path d="M223.78,389.18a35,35,0,0,1,2.37,6.2c.52,2.47-2,5.22-4.06,6.46-1.78,1.05-6,2.75-7.05-.19s-.9-5.13,1.12-4.56,7.62-7.91,7.62-7.91" fill="#956356"/>
        <path d="M177.76,264a19.79,19.79,0,0,0,1.53,6.94c1.42,2.94,2.37,5.22,2.37,5.22s4.37-3.13,4.56-5-.95-10.27-.95-10.27l-4.37-2.75-1.33.19s1.4.42,1.74,1.25.26,5-.69,6.54-2.86-2.09-2.86-2.09" fill="#c4d0d7"/>
        <path d="M505.86,99.9a225.38,225.38,0,0,1-20.77,23.95c-4.34,4.31-9.17,9.28-15.23,11.05-11.33,3.31-32,1.64-43.7,1.64-2.33,0-2.62-5.38-2.68-5.89-.13-1.17,1.3-4.07,2.87-4.12,6.6-.21,15.91-3.34,22.4-4.58,4.94-1,16-3.74,16.18-3.83s16.54-18.92,24.45-28.59c3-3.62,6.74-6.26,11.69-4.7a9.78,9.78,0,0,1,4.79,15.07" fill="#1e4471"/>
        <path d="M543.25,172.3s3.49,22.74-.15,35.49c-2,7.13-15.12,10.57-31.48,7.43-15.53-3-20.64-9.71-22-14.35s0-31.31,0-31.31l53.65,2.74" fill="#002d42"/>
        <path d="M543.33,192l.45,17.9.34,17.91.26,17.92.25,17.92-.15-1.19.27,2.62.19,2.31.32,4.52.58,8.94c.37,5.95.75,11.88,1,17.82.64,11.88,1.24,23.74,1.71,35.63v0a6.28,6.28,0,0,1-12.45,1.4l-3.29-17.5-3.21-17.51-3.18-17.49-1.61-8.71-.83-4.29-.42-2.1-.4-1.77-.15-1.19-2.27-17.77-2.23-17.78-2.17-17.79-2-17.79a14.54,14.54,0,1,1,28.89-3.34c0,.43.08.88.1,1.31" fill="#002d42"/>
        <path d="M516.72,194s-1,8-2.47,19.94c-.75,6-1.62,12.95-2.56,20.42-.44,3.71-.9,7.54-1.37,11.44-.21,1.9-.41,3.82-.61,5.74l-.24,2.65-.19,3c-.14,2.07-.29,4.14-.43,6.2s-.3,4-.45,6c-.31,4-.61,7.88-.9,11.66-.63,7.55-1.22,14.59-1.73,20.63s-1,11.07-1.32,14.59-.53,5.54-.53,5.54h0a6.28,6.28,0,0,1-12.53-.24l-1.15-20.16c-.31-6-.68-13.1-1.07-20.65-.19-3.78-.38-7.68-.57-11.64-.1-2-.2-4-.3-6l-.33-5.87-.2-3-.09-1.75-.05-1.63c-.08-2.15-.12-4.18-.16-6.23-.05-4-.09-8-.13-11.81-.07-7.63,0-14.71.06-20.79s.16-11.14.21-14.68.12-5.57.12-5.57a14.55,14.55,0,1,1,29.09.64c0,.49-.05,1-.1,1.47" fill="#002d42"/>
        <path d="M497.83,84.2C492.3,86,489.09,91.59,489,99.75c-.12,9.78-.6,39.55-.88,43.38-.69,9.17-.62,43.93-.62,43.93s35.75,17.05,55.27,1.31c0,0-3.2-30.7-2.6-37.68.91-10.59,6.55-37.7,8.22-50.18a13.44,13.44,0,0,0-4.79-12.23c-7.17-5.83-24.29-11-45.76-4.08" fill="#fff"/>
        <path d="M503.52,106c.28-8.62,4.2-15.94,5.16-24.48a16,16,0,0,1,.5-3s-4.78,2.43-6.57,3c-2,.64-2.71.94-4.78,1.61-5.53,1.78-8.36,5.46-10.05,13.45-3.08,14.6,0,45.37-.29,49.2-.68,9.17-2.58,50.27-2.58,50.27s5.48,3.12,17.33,5.36c-2.15-28.82-1.12-66.77,1.28-95.45" fill="#1e4471"/>
        <path d="M548.38,100.51a13.44,13.44,0,0,0-4.79-12.23c-3.12-2.54-8.7-4.77-15.08-7.12-.19-.07-4.83-4.19-5-4.25.19.71,1,5.06.65,6.51-1.29,5.87-6.11,11.84-10.79,38-1.27,7.08-.67,14.36-.78,21.54.21,16.92.81,41.57,2.11,58.47,8.36.27,25.44-1,32.09-6.4,0,0-1.85-36.77-1.25-43.75.9-10.59,1.22-38.3,2.89-50.78" fill="#1e4471"/>
        <path d="M516.12,155.34c6.71,6.9,14.1,7.21,23.25,6.91,2.08-.06,4.09-.19,6.08-.37-.11-4.79-.12-8.74,0-10.59.9-10.59,1.22-38.3,2.89-50.77a13.52,13.52,0,0,0-.08-4c-.15.22-.31.44-.49.66-4.4,5.38-7.57,7-10.27,13.51-2.23,5.37,1,19.45,1,25.08.08,6.06-8.26,5.69-13.42,7.37-4.13,1.33-8.29,2.83-12.56,3,0,2.32.08,4.76.13,7.27a6.54,6.54,0,0,1,3.41,1.93" fill="#003454"/>
        <path d="M511.11,69.51,508.66,81a7.09,7.09,0,0,0,6.67,7.5c3.91.23,8.55-3.31,8.78-7.23l-1.65-11.09-11.35-.66" fill="#df9877"/>
        <path d="M522.41,78c.27-.61.66-1.16,1-1.76l-.9-6.08-11.35-.66-2,9.49c2.51,3,11.62,3,13.33-1" fill="#c6876a"/>
        <path d="M502.63,67.35c-.45,7.83,5.2,12.33,10.69,11.9,4.55-.35,14-3.47,14.44-11.15L530.14,54l-26.36-6.31-1.15,19.71" fill="#df9877"/>
        <path d="M507.59,39.91c-11.94,6.57-4,10.85-4,10.85s18.69,1.55,18.66,4.71c0,.93-1.3,6.44-1.3,6.44l2.12,1.74,1.71-2.76-1,14.33a23,23,0,0,0,8.59-13.33c.89-3.67,3.69-11.27.85-15.32-5.83-8.3-14.72-12.68-25.67-6.66" fill="#5e371d"/>
        <path d="M494.23,320.4c-2.2,1.36-9.24,8.33-12.21,10.7-3.31,2.62-5.54,3.81-6.12,5.39-.93,2.54.29,3,2.75,3.84,2.73.92,7.9-.05,10.79-2.12a28.35,28.35,0,0,1,8.24-4.09s3.5-.91,4.61-1.38a4.4,4.4,0,0,0,2.4-4.12s0-6.09-2-7.82-6.37-1.71-8.5-.4" fill="#071e2a"/>
        <path d="M537.19,330.73s-5.77,8.43-8.11,10.89c-6.57,6.9-6.7,6.05-6.75,7.86-.09,2.57,3,4,5.31,4.27a10.51,10.51,0,0,0,8-2.47l10.85-9a4.74,4.74,0,0,0,2.37-4c0-1.89-.79-6.45-2-7.89-4.16-4.93-9.68.37-9.68.37" fill="#071e2a"/>
        <path d="M501,143.63c-.37-1.93-.7-3.88-1-5.82s-.65-3.89-1-5.83q-.91-5.83-1.72-11.69l-.79-5.85-.75-5.86-.72-5.86-.72-6.29.35-.21,5.77-3.48c0-.88-.06-1.75,0-2.63,0-.5,0-1,.1-1.49,0-.25.07-.51.12-.77s.13-.49.2-.72c.56-1.87,1.13-3.74,1.79-5.58l-1.21,5.73c0,.25-.09.46-.12.7s0,.45,0,.69c0,.47,0,1,0,1.43.05,1,.13,1.93.24,2.88l0,.3-.27.19-5.52,3.62.77,5.44.79,5.86.74,5.86.71,5.86q.69,5.86,1.27,11.75c.19,1.95.38,3.92.54,5.88s.34,3.93.47,5.89" fill="#0c2e43"/>
        <path d="M529.29,81.45l-.07,0c0-.14-.07-.29-.1-.43.06.15.11.3.17.46" fill="#5a7e84"/>
        <path d="M516.29,140.34c.1-1,.17-2,.29-3s.23-2,.4-2.95.29-2,.5-2.93l.65-2.91c.19-1,.49-1.92.75-2.88s.51-1.92.83-2.86l.93-2.83,1-2.8c.33-.94.72-1.85,1.1-2.77s.75-1.84,1.16-2.75.79-1.82,1.23-2.71l1.31-2.67c.9-1.78,1.82-3.53,2.81-5.26s1.88-3.23,2.93-4.81q-1.43-3-2.79-6.08l-.08-.17.06-.16a10.59,10.59,0,0,0,.46-4.37,27.15,27.15,0,0,0-.63-4.06l.07,0a21.73,21.73,0,0,1,1,4,15.05,15.05,0,0,1,.2,2.33,8,8,0,0,1-.08,1.19,5.79,5.79,0,0,1-.2,1q1.63,3,3.22,6.1l.15.29-.19.32c-1,1.67-2,3.38-2.89,5.11s-1.82,3.49-2.7,5.24-1.68,3.55-2.49,5.34c-.42.89-.79,1.8-1.18,2.7s-.76,1.81-1.12,2.72L522,120.5l-1,2.77c-.36.91-.64,1.86-1,2.79s-.63,1.86-.89,2.81l-.83,2.83-.73,2.86c-.25.95-.48,1.91-.65,2.88s-.41,1.93-.61,2.9" fill="#0c2e43"/>
        <polygon points="499.94 143.95 491.93 134.23 492.54 132.71 507.18 131.88 516.38 145.31 504.55 149.71 499.94 143.95" fill="#071e2a"/>
        <path d="M556.57,116.82q-2.9-8.41-6.13-16.7a29.29,29.29,0,0,0-2.67-5.64c-4,2.69-7.47,6.09-8.94,10.58a6.55,6.55,0,0,1-5.53,4.65c4.14,10.84,8.52,21.61,12.29,32.58-4.77,1-9.62,1.49-14.44,2.05-3.1.37-7.43,0-10.29,1.55a5.75,5.75,0,0,0-.81,9.57c2.62,2,7.42,1.86,10.52,2.21,9.13,1,33.26,3.81,34-10,0-.35,0-.7.05-1-.13-9.95-4.82-20.57-8-29.85" fill="#1e4471"/>
        <path d="M521.5,148.15c-.25-2.26-4.56-6.68-5.82-7.64s-5.65-4.76-5.65-4.76-3.28,1.3-.15,4,3.24,4.25,2,5.18-8.45-.73-11.84-1.48c-.63-.14-1.94-3.14-4.54-4.78-1.61-1-2.54.31-2.29.92s3.87,5.76,3.87,5.76,4.81,7.74,6.51,8.42,14.73,1.84,16.54.61,1.62-4.15,1.4-6.19" fill="#df9877"/>
        <path d="M404.35,133.93l-1.55,0h-1.45l-1.29,0-1.93-.09-.74,0a1.12,1.12,0,0,1,.05-2.24h0l.71,0,1.89,0c.78,0,1.69,0,2.67-.08l1.5-.07.77,0,.77-.05.32,0,0-.16H401.8l-2.66,0-1.88,0-.71,0a1.13,1.13,0,0,1,0-2.25h0l.71,0,1.89-.05,2.66,0,3.05,0h1.31c0-.15.06-.29.1-.43h-.81c-.95,0-1.9,0-2.79-.06l-1.28,0-1.15-.05c-.71,0-1.3-.07-1.71-.1l-.65,0a1.12,1.12,0,0,1,.08-2.24h2.35l2.41,0c.88,0,1.82,0,2.75,0h1.38c.44,0,.88,0,1.31,0l.86-.06c2.09-.81,4.47-.73,4.65-1.2.68-1.81-.89-3.05-2.83-4.69s-.86-2.59-.45-2.78,5.25,3.07,6,3.57,4,2.71,4.94,3.91c.45.61,2.25,2.86,2.25,2.86l2.27.32s.54.89.54,4.09c0,3.58-1.1,3.87-1.1,3.87l-3.79.22a23.81,23.81,0,0,1-7.54,1.56c-4.82.29-13.49-.38-14.36-.81-.27-.14-1.42-.09-1.51-1a.68.68,0,0,1,.68-.82c1.44-.15,6.58.48,7.52-.84l-.3,0c-.54,0-1.07.06-1.6.07" fill="#df9877"/>
        <path d="M509.18,94a23.23,23.23,0,0,1-2-4.93,55.61,55.61,0,0,0,1.39-6.53,9.12,9.12,0,0,0,3.54,5.84l.26.49L509.18,94" fill="#d3d3d3"/>
        <path d="M507.17,89a9.23,9.23,0,0,1-.33-2.27,22.86,22.86,0,0,1,.86-6.45l.85-.72a8.44,8.44,0,0,0,0,2.91A55.61,55.61,0,0,1,507.17,89" fill="#00304e"/>
        <path d="M524.12,81.21h0l-.64-4.29h0a34.88,34.88,0,0,1,.66,4.29" fill="#6c9ea7"/>
        <path d="M515.26,94.27l-2.9-5.43.13-.21-.39-.28v0c.37-.09.73-.19,1.08-.31a6.94,6.94,0,0,0,2.15.47h.36c3.83,0,8.2-3.44,8.42-7.24v-.05h0a8.36,8.36,0,0,1,0,2.21,34.71,34.71,0,0,1-1.77,5.23,25.36,25.36,0,0,1-7.08,5.62" fill="#d3d3d3"/>
        <path d="M522.34,88.65a34.71,34.71,0,0,0,1.77-5.23,8.36,8.36,0,0,0,0-2.21,34.88,34.88,0,0,0-.66-4.29,8.92,8.92,0,0,1,1.35,6.67,10.69,10.69,0,0,1-2.47,5.06" fill="#00304e"/>
        <path d="M515.69,88.5h-.36a6.94,6.94,0,0,1-2.15-.47,14.11,14.11,0,0,0,10.09-11.34,1.86,1.86,0,0,1,.19.24l.64,4.29v.05c-.22,3.8-4.59,7.24-8.42,7.24" fill="#b97e62"/>
        <path d="M512.36,88.84l-.26-.49.39.28-.13.21" fill="#afafaf"/>
        <path d="M509.18,92.93s-2.33-4.14-2.34-7.19a23,23,0,0,1,.86-6.46l1.48-.74a8.38,8.38,0,0,0,3.31,9.17l-3.31,5.22" fill="#fff"/>
        <path d="M523.27,75.64a13.77,13.77,0,0,1-10.78,12.07l2.77,5.52s8.57-4.36,9.55-10.68a8.64,8.64,0,0,0-1.54-6.91" fill="#fff"/>
        <path d="M527.16,63.09c-1.14-4.32-4.31-1.65-4.31-1.65l-1.14,2.79s-16.11-4.57-18.9-1.65A36,36,0,0,0,502,68.8c0,2.66,1.65,7.61,2.92,8.37s9.56,4,14.21,1,5.08-6.73,5.08-6.73,4.06-4.06,2.91-8.37m-1.64,5.58-1.4,1.9-1.65-5.32s1-3.94,2-3.18,2.41,4.7,1,6.6" fill="#f7f7f8"/>
        <path d="M523.79,62.46l-.23,5.68c2.46,1.31,5.15-2.59,4.94-5.74-.17-2.48-1.94-2.49-3.21-1.71a4.75,4.75,0,0,0-1.5,1.77" fill="#df9877"/>
        <path d="M288.22,80.92a2.14,2.14,0,1,1-2.14-2.14A2.13,2.13,0,0,1,288.22,80.92Z" fill="none" stroke="#fff" stroke-miterlimit="10" stroke-width="0.57"/>
        <path d="M315.15,294.64a2.14,2.14,0,1,1-2.13-2.13A2.13,2.13,0,0,1,315.15,294.64Z" fill="none" stroke="#fff" stroke-miterlimit="10" stroke-width="0.57"/>
      </g>
    </g>
  </g>
</svg>
